<svg width="111" height="40" viewBox="0 0 111 40" fill="none" xmlns="http://www.w3.org/2000/svg">
<g clip-path="url(#clip0_92_47122)">
<path d="M12.2793 5H0.0834961V34.1667L12.2793 5Z" fill="#E6E6E6"/>
<path d="M20.8608 5H33.0408V34.1667L20.8608 5Z" fill="#E6E6E6"/>
<path d="M16.569 15.75L24.3314 34.1669H19.2386L16.9186 28.3033H11.2378L16.569 15.75Z" fill="#E6E6E6"/>
<path d="M52.9366 23.5474L54.3747 27.671C54.4224 27.7743 54.4939 27.8219 54.621 27.8219H57.3859C57.5369 27.8219 57.5607 27.7504 57.5369 27.5995L51.8243 11.733C51.8005 11.6059 51.7766 11.582 51.6495 11.582H48.2172C48.1219 11.582 48.0663 11.6535 48.0663 11.7568C48.0186 12.5911 47.9471 12.8453 47.8438 13.0916L42.7509 27.5756C42.7271 27.7504 42.7827 27.8219 42.9257 27.8219H45.3967C45.5476 27.8219 45.6191 27.7743 45.6748 27.6233L47.0334 23.5474H52.9366ZM47.82 20.854C48.5668 18.5976 49.552 15.7056 49.9493 14.053H49.9731C50.4657 15.785 51.6257 19.2173 52.1501 20.854H47.82Z" fill="#E6E6E6"/>
<path d="M64.8805 28.0675C66.3662 28.0675 67.9473 27.7973 69.5523 27.1061C69.6794 27.0584 69.7032 27.0028 69.7032 26.8836C69.6555 26.4387 69.5999 25.7952 69.5999 25.3026V10.3657C69.5999 10.2703 69.5999 10.2227 69.4808 10.2227H66.7874C66.6841 10.2227 66.6364 10.2703 66.6364 10.3975V15.4585C66.2153 15.4108 65.9213 15.387 65.5717 15.387C61.2257 15.387 58.5562 18.2552 58.5562 21.8385C58.5562 25.9938 61.2972 28.0675 64.8805 28.0675ZM66.6364 25.3026C66.1915 25.4456 65.6989 25.5012 65.1983 25.5012C63.2279 25.5012 61.615 24.3889 61.615 21.6875C61.615 19.296 63.2756 17.8818 65.4764 17.8818C65.9213 17.8818 66.3106 17.9295 66.6364 18.0566V25.3026Z" fill="#E6E6E6"/>
<path d="M78.2951 15.3867C74.5847 15.3867 72.2886 18.2311 72.2886 21.7428C72.2886 24.8812 74.116 28.0672 78.2395 28.0672C81.7274 28.0672 84.1745 25.5009 84.1745 21.6634C84.1745 18.2788 82.1008 15.3867 78.2951 15.3867ZM78.1442 17.8815C80.2417 17.8815 81.1315 19.685 81.1315 21.7428C81.1315 24.2853 79.8206 25.5486 78.2951 25.5486C76.4121 25.5486 75.2998 23.9675 75.2998 21.6872C75.2998 19.3434 76.4836 17.8815 78.1442 17.8815Z" fill="#E6E6E6"/>
<path d="M86.9595 10.2227C86.8562 10.2227 86.7847 10.2703 86.7847 10.3975V27.3047C86.7847 27.3763 86.8562 27.5034 86.9595 27.5272C88.1433 27.8927 89.3827 28.0675 90.6619 28.0675C94.3246 28.0675 97.884 25.7952 97.884 21.2188C97.884 17.9056 95.6117 15.387 92.0523 15.387C91.2339 15.387 90.4712 15.5141 89.8038 15.7366L89.772 10.4213C89.772 10.2465 89.7244 10.2227 89.5496 10.2227H86.9595ZM94.841 21.5207C94.841 24.2617 92.966 25.5489 90.94 25.5489C90.5189 25.5489 90.1455 25.525 89.8038 25.4217V18.2075C90.1931 18.0566 90.6619 17.9295 91.5279 17.9295C93.4824 17.9295 94.841 19.1689 94.841 21.5207Z" fill="#E6E6E6"/>
<path d="M107.936 22.4102C109.144 22.4102 110.137 22.3864 110.479 22.3069C110.606 22.2831 110.654 22.2354 110.677 22.1322C110.749 21.862 110.781 21.2979 110.781 20.6067C110.781 18.2549 109.366 15.3867 105.712 15.3867C101.977 15.3867 99.9038 18.4297 99.9038 21.862C99.9038 24.905 101.509 28.0672 106.006 28.0672C107.69 28.0672 108.779 27.7971 109.716 27.3521C109.811 27.3044 109.859 27.225 109.859 27.082V25.0242C109.859 24.905 109.788 24.8812 109.716 24.9289C108.779 25.3261 107.762 25.5247 106.649 25.5247C104.131 25.5247 102.987 24.1343 102.915 22.4102H107.936ZM102.915 20.2809C103.114 19.0733 103.876 17.7623 105.585 17.7623C107.468 17.7623 107.96 19.3434 107.96 20.0585C107.96 20.0823 107.96 20.1856 107.96 20.2571C107.857 20.2809 107.539 20.2809 106.602 20.2809H102.915Z" fill="#E6E6E6"/>
</g>
<defs>
<clipPath id="clip0_92_47122">
<rect width="110.833" height="40" fill="white" transform="translate(0.0834961)"/>
</clipPath>
</defs>
</svg>
