<svg width="93" height="40" viewBox="0 0 93 40" fill="none" xmlns="http://www.w3.org/2000/svg">
<g clip-path="url(#clip0_92_47118)">
<path fill-rule="evenodd" clip-rule="evenodd" d="M57.2778 31.505C51.9748 35.4137 44.2885 37.4991 37.6707 37.4991C28.3915 37.4991 20.0378 34.0671 13.718 28.3589C13.2214 27.9101 13.6663 27.2983 14.2622 27.6479C21.0825 31.6162 29.5156 34.0035 38.2268 34.0035C44.1018 34.0035 50.5647 32.788 56.5072 30.2656C57.4049 29.8843 58.1557 30.8535 57.2778 31.505Z" fill="#E6E6E6"/>
<path fill-rule="evenodd" clip-rule="evenodd" d="M59.4824 28.9826C58.8072 28.1167 55.0018 28.5735 53.2937 28.776C52.7733 28.8396 52.6939 28.3868 53.1626 28.061C56.1934 25.9279 61.1667 26.5436 61.7466 27.2586C62.3266 27.9776 61.5957 32.9628 58.7476 35.3422C58.3106 35.7076 57.8935 35.513 58.0882 35.0284C58.7277 33.4315 60.1617 29.8525 59.4824 28.9826Z" fill="#E6E6E6"/>
<path fill-rule="evenodd" clip-rule="evenodd" d="M53.4143 13.003V10.9295C53.4143 10.6157 53.6526 10.4052 53.9386 10.4052H63.2218C63.5197 10.4052 63.758 10.6197 63.758 10.9295V12.7051C63.7541 13.003 63.5038 13.3923 63.0589 14.008L58.2485 20.8761C60.036 20.8324 61.9228 21.0985 63.5435 22.0121C63.909 22.2187 64.0083 22.5206 64.0361 22.8185V25.031C64.0361 25.3329 63.7024 25.6865 63.3529 25.5037C60.4968 24.0062 56.7033 23.8433 53.5453 25.5196C53.2236 25.6944 52.8859 25.3449 52.8859 25.043V22.9416C52.8859 22.604 52.8899 22.028 53.2276 21.5156L58.8006 13.5234H53.9505C53.6526 13.5234 53.4143 13.3129 53.4143 13.003Z" fill="#E6E6E6"/>
<path fill-rule="evenodd" clip-rule="evenodd" d="M19.5507 25.9407H16.7264C16.4563 25.9209 16.2418 25.7183 16.2219 25.4601V10.9653C16.2219 10.6753 16.4642 10.4449 16.7661 10.4449H19.3997C19.6738 10.4568 19.8923 10.6674 19.9122 10.9295V12.8243H19.9638C20.651 10.9931 21.942 10.1391 23.6818 10.1391C25.4495 10.1391 26.5538 10.9931 27.3482 12.8243C28.0315 10.9931 29.5846 10.1391 31.249 10.1391C32.4327 10.1391 33.7277 10.6276 34.5182 11.724C35.4119 12.9435 35.2292 14.7151 35.2292 16.2683L35.2252 25.4164C35.2252 25.7064 34.9829 25.9407 34.681 25.9407H31.8607C31.5787 25.9209 31.3523 25.6944 31.3523 25.4164V17.734C31.3523 17.1223 31.4079 15.5969 31.2728 15.017C31.0623 14.0438 30.4307 13.7697 29.6124 13.7697C28.9292 13.7697 28.2142 14.2265 27.9242 14.9574C27.6342 15.6883 27.662 16.9118 27.662 17.734V25.4164C27.662 25.7064 27.4197 25.9407 27.1178 25.9407H24.2975C24.0115 25.9209 23.7891 25.6944 23.7891 25.4164L23.7851 17.734C23.7851 16.1173 24.0513 13.7379 22.0453 13.7379C20.0154 13.7379 20.0949 16.0577 20.0949 17.734V25.4164C20.0949 25.7064 19.8526 25.9407 19.5507 25.9407Z" fill="#E6E6E6"/>
<path fill-rule="evenodd" clip-rule="evenodd" d="M71.7501 10.1391C75.9408 10.1391 78.209 13.7379 78.209 18.314C78.209 22.7351 75.7025 26.2426 71.7501 26.2426C67.6348 26.2426 65.3945 22.6437 65.3945 18.1591C65.3945 13.6466 67.6627 10.1391 71.7501 10.1391ZM71.7739 13.0984C69.6925 13.0984 69.5614 15.9346 69.5614 17.7022C69.5614 19.4739 69.5336 23.2555 71.7501 23.2555C73.9388 23.2555 74.0421 20.2048 74.0421 18.3457C74.0421 17.1223 73.9905 15.6605 73.621 14.5006C73.3033 13.4916 72.6717 13.0984 71.7739 13.0984Z" fill="#E6E6E6"/>
<path fill-rule="evenodd" clip-rule="evenodd" d="M83.6432 25.9407H80.8308C80.5488 25.9209 80.3224 25.6944 80.3224 25.4164L80.3184 10.9176C80.3422 10.6515 80.5766 10.4449 80.8626 10.4449H83.4803C83.7266 10.4568 83.9292 10.6237 83.9848 10.8501V13.0666H84.0364C84.8269 11.0845 85.9352 10.1391 87.8856 10.1391C89.1527 10.1391 90.3881 10.5959 91.1825 11.8471C91.9214 13.007 91.9214 14.9574 91.9214 16.3596V25.4839C91.8896 25.7381 91.6552 25.9407 91.3772 25.9407H88.5449C88.2867 25.9209 88.0723 25.7302 88.0444 25.4839V17.6109C88.0444 16.026 88.2272 13.7061 86.2768 13.7061C85.5896 13.7061 84.958 14.1669 84.6442 14.866C84.247 15.7519 84.1953 16.6337 84.1953 17.6109V25.4164C84.1914 25.7064 83.9451 25.9407 83.6432 25.9407Z" fill="#E6E6E6"/>
<path fill-rule="evenodd" clip-rule="evenodd" d="M46.0139 19.017C46.0139 20.1174 46.0418 21.0349 45.4856 22.0121C45.0368 22.8066 44.3218 23.2952 43.5313 23.2952C42.4469 23.2952 41.8113 22.4689 41.8113 21.2495C41.8113 18.8423 43.9682 18.4053 46.0139 18.4053V19.017ZM48.8621 25.901C48.6754 26.0678 48.4052 26.0797 48.1947 25.9685C47.2573 25.1899 47.0865 24.8285 46.574 24.0856C45.0249 25.6666 43.9245 26.1393 41.9185 26.1393C39.5392 26.1393 37.6921 24.6735 37.6921 21.738C37.6921 19.446 38.9314 17.8849 40.703 17.1223C42.2363 16.447 44.3774 16.3278 46.0139 16.1411V15.7757C46.0139 15.1044 46.0656 14.3099 45.6684 13.73C45.3267 13.2096 44.6673 12.9951 44.0834 12.9951C43.0069 12.9951 42.0496 13.5472 41.8153 14.6912C41.7676 14.9455 41.5809 15.1957 41.3227 15.2076L38.5858 14.9137C38.3554 14.8621 38.0972 14.6754 38.1648 14.3218C38.7924 11.001 41.7954 10 44.4807 10C45.8551 10 47.6505 10.3654 48.7349 11.4062C50.1093 12.6892 49.9783 14.4013 49.9783 16.2643V20.6655C49.9783 21.9883 50.5264 22.5682 51.0428 23.2833C51.2216 23.5375 51.2613 23.8433 51.0309 24.034C50.4549 24.5147 49.4301 25.4084 48.866 25.9089L48.8621 25.901Z" fill="#E6E6E6"/>
<path fill-rule="evenodd" clip-rule="evenodd" d="M8.98839 19.017C8.98839 20.1173 9.0162 21.0349 8.46008 22.0121C8.01121 22.8066 7.30018 23.2952 6.50573 23.2952C5.4213 23.2952 4.78971 22.4689 4.78971 21.2494C4.78971 18.8423 6.94665 18.4053 8.98839 18.4053V19.017ZM11.8365 25.901C11.6498 26.0678 11.3797 26.0797 11.1692 25.9685C10.2317 25.1899 10.0649 24.8285 9.54848 24.0856C7.9993 25.6666 6.90296 26.1393 4.89299 26.1393C2.51758 26.1393 0.666504 24.6735 0.666504 21.738C0.666504 19.446 1.90982 17.8849 3.67748 17.1223C5.21077 16.447 7.35182 16.3278 8.98839 16.1411V15.7757C8.98839 15.1044 9.04003 14.3099 8.64678 13.73C8.30119 13.2096 7.6418 12.9951 7.06184 12.9951C5.98536 12.9951 5.02407 13.5472 4.78971 14.6912C4.74204 14.9455 4.55535 15.1957 4.30112 15.2076L1.56026 14.9137C1.32987 14.862 1.07565 14.6754 1.1392 14.3218C1.77079 11.001 4.76985 10 7.4551 10C8.8295 10 10.625 10.3654 11.7094 11.4062C13.0838 12.6892 12.9527 14.4013 12.9527 16.2643V20.6655C12.9527 21.9883 13.5009 22.5682 14.0173 23.2832C14.2 23.5375 14.2397 23.8433 14.0093 24.034C13.4333 24.5146 12.4085 25.4084 11.8444 25.9089L11.8365 25.901Z" fill="#E6E6E6"/>
</g>
<defs>
<clipPath id="clip0_92_47118">
<rect width="91.6666" height="40" fill="white" transform="translate(0.666504)"/>
</clipPath>
</defs>
</svg>
