<svg width="24" height="24" viewBox="0 0 24 24" fill="none" xmlns="http://www.w3.org/2000/svg">
<path d="M7.3764 16.1351C7.05497 15.8036 6.48242 15.8036 6.1409 16.1351L4.07171 18.1943C3.74023 18.5257 3.74023 19.0982 4.06166 19.4297C4.39314 19.7612 4.96568 19.7712 5.3072 19.4398L7.3764 17.3706C7.71792 17.0391 7.71792 16.4766 7.3764 16.1351ZM5.55832 11.7556C5.55832 11.2835 5.15652 10.8817 4.67438 10.8817H1.7313C1.25921 10.8817 0.857422 11.2835 0.857422 11.7556C0.857422 12.2277 1.25921 12.6295 1.7313 12.6295H4.67438C5.15652 12.6295 5.55832 12.2277 5.55832 11.7556ZM7.27595 7.28575C7.61747 6.95428 7.61747 6.39177 7.27595 6.05025L5.2168 3.98106C4.88532 3.64959 4.32282 3.63954 3.9813 3.97101C3.64983 4.30249 3.64983 4.86499 3.9813 5.20651L6.04046 7.28575C6.38197 7.62727 6.94447 7.62727 7.27595 7.28575ZM11.7558 5.53798C12.238 5.53798 12.6398 5.1362 12.6398 4.6641V1.73106C12.6398 1.25896 12.238 0.857178 11.7558 0.857178C11.2838 0.857178 10.882 1.25896 10.882 1.73106V4.6641C10.882 5.1362 11.2838 5.53798 11.7558 5.53798ZM16.1253 7.3862C16.4668 7.72771 17.0393 7.72771 17.3708 7.3862L19.44 5.317C19.7815 4.97548 19.7815 4.41298 19.44 4.07146C19.1086 3.73999 18.546 3.73999 18.2146 4.07146L16.1253 6.1507C15.7938 6.49222 15.7938 7.05472 16.1253 7.3862ZM17.9735 11.7556C17.9735 12.2277 18.3753 12.6295 18.8474 12.6295H21.7804C22.2626 12.6295 22.6643 12.2277 22.6643 11.7556C22.6643 11.2835 22.2626 10.8817 21.7804 10.8817H18.8474C18.3753 10.8817 17.9735 11.2835 17.9735 11.7556ZM10.9624 18.7367C10.9522 19.1284 11.4043 19.2489 11.6655 18.9978L13.1922 17.461L14.9099 21.7098C14.9903 21.8907 15.1912 21.9911 15.3719 21.9107L16.3764 21.519C16.5572 21.4286 16.6275 21.2177 16.5371 21.0369L14.7291 16.8583L16.8987 16.7679C17.2703 16.7478 17.4612 16.3862 17.19 16.0949L11.6956 10.4598C11.4445 10.1987 11.0627 10.3393 11.0527 10.711L10.9624 18.7367Z" fill="#9EFF00"/>
</svg>
