<svg width="24" height="24" viewBox="0 0 24 24" fill="none" xmlns="http://www.w3.org/2000/svg">
<g clip-path="url(#clip0_92_53533)">
<path d="M13.2877 23.2819C17.2533 23.2819 19.4828 20.7966 19.4828 16.5477V14.7934C19.4828 13.1852 18.7152 12.2074 17.838 12.2074C17.637 12.2074 17.5365 12.3171 17.5365 12.4998V13.2765C17.5365 13.6512 17.3446 13.8248 17.1253 13.8248C16.8877 13.8248 16.705 13.6512 16.705 13.2765V12.7649C16.705 11.8237 16.0928 11.2024 15.2795 11.2024C14.905 11.2024 14.7405 11.3577 14.7405 11.6683V12.7283C14.7405 13.1029 14.5578 13.2765 14.3384 13.2765C14.1008 13.2765 13.909 13.1029 13.909 12.7283V11.7506C13.909 10.6906 13.2968 10.1881 12.5018 10.1881C12.1546 10.1881 11.9627 10.3526 11.9627 10.6542V12.7283C11.9627 13.1029 11.78 13.2765 11.5607 13.2765C11.3231 13.2765 11.1312 13.1029 11.1312 12.7283V5.79307C11.1312 5.11691 10.6926 4.67831 10.117 4.67831C9.50479 4.67831 9.08447 5.11691 9.08447 5.79307V15.9446C9.08447 16.2005 8.92 16.3284 8.76467 16.3284C8.60933 16.3284 8.48141 16.237 8.37176 15.9903L7.02857 12.8106C6.82755 12.3445 6.52602 12.1435 6.11484 12.1435C5.48436 12.1435 5.08232 12.573 5.08232 13.0938C5.08232 13.2948 5.12801 13.4684 5.1737 13.6146L6.65394 18.028C7.91489 21.756 10.3728 23.2819 13.2877 23.2819ZM5.45696 7.01747C6.27018 7.01747 6.89151 6.37786 6.89151 5.58291C6.89151 4.7971 6.27018 4.15749 5.45696 4.15749C4.68028 4.15749 4.0498 4.7971 4.0498 5.58291C4.0498 6.37786 4.68028 7.01747 5.45696 7.01747ZM10.117 2.85999C10.9119 2.85999 11.5515 2.22037 11.5515 1.42542C11.5515 0.64875 10.9119 0 10.117 0C9.34032 0 8.69156 0.64875 8.69156 1.42542C8.69156 2.22037 9.34032 2.85999 10.117 2.85999ZM14.8227 7.01747C15.6176 7.01747 16.2572 6.37786 16.2572 5.58291C16.2572 4.7971 15.6176 4.15749 14.8227 4.15749C14.0369 4.15749 13.3973 4.7971 13.3973 5.58291C13.3973 6.37786 14.0369 7.01747 14.8227 7.01747ZM19.0259 7.01747C19.8209 7.01747 20.4605 6.37786 20.4605 5.58291C20.4605 4.7971 19.8209 4.15749 19.0259 4.15749C18.2492 4.15749 17.6096 4.7971 17.6096 5.58291C17.6096 6.37786 18.2492 7.01747 19.0259 7.01747ZM19.0259 2.85999C19.8209 2.85999 20.4605 2.22037 20.4605 1.42542C20.4605 0.64875 19.8209 0 19.0259 0C18.2492 0 17.6096 0.64875 17.6096 1.42542C17.6096 2.22037 18.2492 2.85999 19.0259 2.85999Z" fill="#9EFF00"/>
</g>
<defs>
<clipPath id="clip0_92_53533">
<rect width="24" height="24" fill="white"/>
</clipPath>
</defs>
</svg>
