<svg width="24" height="24" viewBox="0 0 24 24" fill="none" xmlns="http://www.w3.org/2000/svg">
<g clip-path="url(#clip0_92_59504)">
<path d="M4.27525 17.9196L5.08887 19.3058L12.2507 15.7098L19.4125 19.3058L20.2262 17.9196L13.0643 14.3236V5.84596H11.4472V14.3236L4.27525 17.9196ZM1.73396 19.356C1.73396 19.7678 1.90472 20.0692 2.26632 20.27L4.27525 21.4453C4.53641 21.606 4.71722 21.6362 5.06878 21.4352L7.02748 20.3002C7.38909 20.0993 7.4594 19.9286 7.44936 19.5971L7.4594 17.2667C7.4594 16.865 7.2786 16.5736 6.93708 16.3728L4.91811 15.1976C4.65694 15.0569 4.43596 15.0067 4.09444 15.1976L2.10561 16.3526C1.76409 16.5435 1.71387 16.7444 1.71387 17.0257L1.73396 19.356ZM16.9918 19.6071C16.9817 19.9386 17.052 20.1093 17.4136 20.3102L19.3724 21.4453C19.7239 21.6462 19.9048 21.6161 20.1658 21.4553L22.1748 20.2802C22.5364 20.0792 22.7072 19.7779 22.7072 19.3661L22.7272 17.0357C22.7272 16.7545 22.677 16.5536 22.3355 16.3627L20.3467 15.2076C20.0051 15.0167 19.7842 15.0669 19.523 15.2076L17.5041 16.3828C17.1625 16.5837 16.9817 16.875 16.9817 17.2767L16.9918 19.6071ZM9.68932 7.5636L11.7184 8.72877C12.0598 8.91962 12.3913 8.91962 12.7329 8.72877L14.7619 7.5636C15.0431 7.40289 15.1636 7.25222 15.1636 6.84039V4.57029C15.1636 4.16851 15.0431 4.02789 14.782 3.87722L12.7529 2.72208C12.3913 2.52119 12.0498 2.52119 11.6982 2.72208L9.66922 3.87722C9.41811 4.01784 9.27748 4.16851 9.27748 4.57029V6.84039C9.27748 7.25222 9.42815 7.41293 9.68932 7.5636Z" fill="#9EFF00"/>
</g>
<defs>
<clipPath id="clip0_92_59504">
<rect width="21.0134" height="19.0547" fill="white" transform="translate(1.71387 2.57141)"/>
</clipPath>
</defs>
</svg>
