<svg width="24" height="24" viewBox="0 0 24 24" fill="none" xmlns="http://www.w3.org/2000/svg">
<path d="M2.57129 7.99554C2.57129 8.87948 3.51548 9.10046 4.07798 8.52792L8.52776 4.07814C9.11035 3.50559 8.87933 2.57144 7.99539 2.57144H3.48535C2.92285 2.57144 2.57129 2.95314 2.57129 3.49554V7.99554ZM5.16281 6.42858L17.8894 19.1652L19.1651 17.9096L6.43848 5.16296L5.16281 6.42858ZM21.7666 16.3426C21.7666 15.4486 20.8224 15.2377 20.2499 15.8002L15.8001 20.25C15.2275 20.8326 15.4586 21.7667 16.3425 21.7667H20.8525C21.4151 21.7667 21.7666 21.375 21.7666 20.8426V16.3426ZM21.7666 7.99554V3.49554C21.7666 2.95314 21.4151 2.57144 20.8525 2.57144H16.3425C15.4586 2.57144 15.2275 3.50559 15.8001 4.07814L20.2499 8.52792C20.8224 9.10046 21.7666 8.87948 21.7666 7.99554ZM6.43848 19.1652L19.1751 6.42858L17.8994 5.16296L5.16281 17.8996L6.43848 19.1652ZM2.57129 16.3426V20.8426C2.57129 21.375 2.92285 21.7667 3.48535 21.7667H7.99539C8.87933 21.7667 9.11035 20.8326 8.52776 20.25L4.07798 15.8002C3.51548 15.2377 2.57129 15.4486 2.57129 16.3426Z" fill="#9EFF00"/>
</svg>
