<svg width="24" height="24" viewBox="0 0 24 24" fill="none" xmlns="http://www.w3.org/2000/svg">
<path d="M1.2354 22.7446C2.89276 24.402 5.35371 24.4622 6.98093 22.5236C8.17625 21.0872 11.1997 16.2156 13.7912 13.624C15.5189 11.8963 17.4273 12.8104 19.3459 12.027L17.6383 5.79926C17.4273 5.02583 17.7387 4.38297 18.6327 4.1419L22.3995 3.13744C22.2789 2.78587 21.9475 2.30373 21.5356 1.88185C19.2153 -0.498728 15.3783 -0.528862 13.0881 1.64078C9.74323 4.82494 12.2845 8.18989 10.0847 10.3897C7.31241 13.152 3.49545 15.1609 1.45638 16.989C-0.452101 18.6866 -0.442056 21.0671 1.2354 22.7446ZM4.07804 21.1375C3.395 21.1375 2.8325 20.5849 2.8325 19.902C2.8325 19.2189 3.395 18.6564 4.07804 18.6564C4.76107 18.6564 5.31352 19.2189 5.31352 19.902C5.31352 20.5849 4.76107 21.1375 4.07804 21.1375ZM13.52 7.71779C13.299 7.77806 13.1082 7.66757 13.0378 7.42649C12.9776 7.24569 13.0981 7.02471 13.309 6.96444L15.6595 6.33163C15.8504 6.2814 16.0713 6.40194 16.1216 6.61288C16.1919 6.8439 16.0613 7.0448 15.8504 7.10507L13.52 7.71779ZM13.8213 8.91306C13.6004 8.97341 13.4095 8.86292 13.3292 8.62181C13.2689 8.44101 13.3995 8.22002 13.6104 8.1698L15.9508 7.52694C16.1416 7.48676 16.3626 7.59725 16.4229 7.80819C16.4932 8.03922 16.3526 8.24011 16.1416 8.30038L13.8213 8.91306ZM14.1126 10.1084C13.9017 10.1687 13.6807 10.0582 13.6406 9.81709C13.5903 9.61626 13.7008 9.42538 13.9218 9.36512L16.2521 8.74232C16.4731 8.67204 16.684 8.80258 16.7242 9.00349C16.7745 9.20441 16.6539 9.42538 16.4631 9.47561L14.1126 10.1084ZM20.4508 11.5448C20.8425 11.3137 21.2443 11.0125 21.6561 10.6207C22.9218 9.47561 23.5747 7.74792 23.3135 6.52247L20.27 7.35618C19.9285 7.44659 19.6371 7.46668 19.3258 7.41645L20.4508 11.5448Z" fill="#9EFF00"/>
</svg>
