<svg width="24" height="24" viewBox="0 0 24 24" fill="none" xmlns="http://www.w3.org/2000/svg">
<path d="M15.0539 20.6659H21.0274C22.3414 20.6659 23.2201 19.8275 23.2201 18.5699V5.69593C23.2201 4.43836 22.3414 3.59998 21.0274 3.59998H15.0539C13.7399 3.59998 12.8532 4.43836 12.8532 5.69593V18.5699C12.8532 19.8275 13.7399 20.6659 15.0539 20.6659ZM15.2151 19.368C14.538 19.368 14.1511 19.0052 14.1511 18.3603V5.90552C14.1511 5.26061 14.538 4.89786 15.2151 4.89786H20.8581C21.5353 4.89786 21.9222 5.26061 21.9222 5.90552V18.3603C21.9222 19.0052 21.5353 19.368 20.8581 19.368H15.2151ZM2.06707 18.7472C2.48626 18.7472 2.78453 18.4571 2.78453 18.0379V16.8125C2.78453 13.8137 4.61446 12.8463 6.96032 12.8463H7.49237L9.72537 12.7738V12.3224L7.53267 14.3216L6.64592 15.0793C6.46051 15.2325 6.41215 15.434 6.41215 15.6275C6.41215 16.0225 6.71848 16.3208 7.11348 16.3208C7.30696 16.3208 7.47624 16.2482 7.65359 16.0789L11.0636 12.6771C11.2248 12.5239 11.3135 12.3385 11.3135 12.137C11.3135 11.9354 11.2248 11.75 11.0636 11.5968L7.63747 8.17883C7.47624 8.0176 7.30696 7.95311 7.11348 7.95311C6.71848 7.95311 6.41215 8.24332 6.41215 8.64639C6.41215 8.83986 6.46051 9.04139 6.64592 9.19456L7.53267 9.95233L9.72537 11.9515V11.5001L7.49237 11.4275H6.96032C4.09853 11.4275 1.34961 12.7416 1.34961 16.8125V18.0379C1.34961 18.4571 1.64788 18.7472 2.06707 18.7472Z" fill="#9EFF00"/>
</svg>
