<svg width="24" height="24" viewBox="0 0 24 24" fill="none" xmlns="http://www.w3.org/2000/svg">
<path d="M2.58238 18.7521H21.3759C22.994 18.7521 23.8078 17.9856 23.8078 16.3201V5.4755C23.8078 3.81948 22.994 3.05298 21.3759 3.05298H2.58238C0.964204 3.05298 0.150391 3.81948 0.150391 5.4755V16.3201C0.150391 17.9856 0.964204 18.7521 2.58238 18.7521ZM7.21923 21.96H16.739C17.1554 21.96 17.5055 21.6193 17.5055 21.1935C17.5055 20.7677 17.1554 20.427 16.739 20.427H7.21923C6.80286 20.427 6.45273 20.7677 6.45273 21.1935C6.45273 21.6193 6.80286 21.96 7.21923 21.96ZM12.4712 14.8249C12.263 14.8249 12.1305 14.7019 12.1021 14.5032C11.6858 11.6548 11.3167 11.0208 8.3264 10.718C8.12768 10.6896 8.00466 10.5476 8.00466 10.3584C8.00466 10.1786 8.12768 10.0272 8.3264 9.9988C11.3072 9.60136 11.5627 9.08089 12.1021 6.20415C12.1495 6.01489 12.2819 5.89187 12.4712 5.89187C12.651 5.89187 12.7929 6.02435 12.8213 6.21361C13.2472 9.03358 13.6351 9.60136 16.6065 9.9988C16.7958 10.0272 16.9282 10.1786 16.9282 10.3584C16.9282 10.5476 16.7958 10.6896 16.6065 10.718C13.6257 11.1155 13.3607 11.6548 12.8213 14.5126C12.7834 14.7019 12.651 14.8249 12.4712 14.8249ZM8.62921 16.4242C8.47781 16.4242 8.40214 16.3201 8.35482 16.1687C8.0709 14.7776 8.19392 14.7114 6.66092 14.4842C6.50004 14.4559 6.41488 14.3612 6.41488 14.2098C6.41488 14.0773 6.50004 13.9638 6.64199 13.9449C8.19392 13.6894 8.0709 13.6231 8.35482 12.2415C8.40214 12.0901 8.48725 11.986 8.62921 11.986C8.77117 11.986 8.86581 12.0996 8.9036 12.2415C9.16863 13.6231 9.07399 13.6894 10.6259 13.9449C10.7584 13.9638 10.853 14.0773 10.853 14.2098C10.853 14.3423 10.7584 14.4559 10.6259 14.4842C9.07399 14.7114 9.16863 14.7776 8.9036 16.197C8.86581 16.3295 8.76173 16.4242 8.62921 16.4242Z" fill="#9EFF00"/>
</svg>
