<svg width="24" height="24" viewBox="0 0 24 24" fill="none" xmlns="http://www.w3.org/2000/svg">
<path d="M15.6292 11.1C16.1935 11.1 16.6217 10.5806 16.3939 10.0644C15.6497 8.37745 13.9624 7.20001 12.0002 7.20001C11.8247 7.20001 11.6514 7.20943 11.4808 7.22779C10.9193 7.2882 10.6832 7.91886 10.9655 8.40792L12.26 10.65C12.4208 10.9285 12.7179 11.1 13.0394 11.1L15.6292 11.1Z" fill="#9EFF00"/>
<path d="M9.40757 9.30943C9.12513 8.82023 8.46052 8.70934 8.12652 9.16491C7.54412 9.95932 7.2002 10.9395 7.2002 12C7.2002 13.0606 7.54414 14.0408 8.12658 14.8352C8.46057 15.2907 9.12518 15.1798 9.40762 14.6907L10.7012 12.4501C10.862 12.1716 10.862 11.8285 10.7012 11.5501L9.40757 9.30943Z" fill="#9EFF00"/>
<path d="M10.9656 15.5921C10.6833 16.0812 10.9194 16.7118 11.4809 16.7722C11.6515 16.7906 11.8247 16.8 12.0002 16.8C13.9624 16.8 15.6497 15.6226 16.3939 13.9356C16.6217 13.4194 16.1935 12.9 15.6292 12.9H13.0395C12.718 12.9 12.4209 13.0715 12.2601 13.35L10.9656 15.5921Z" fill="#9EFF00"/>
<path fill-rule="evenodd" clip-rule="evenodd" d="M16.9556 5.2167L17.7295 3.87635C17.978 3.44588 17.8305 2.89545 17.4001 2.64692C16.9696 2.39839 16.4192 2.54588 16.1706 2.97634L15.3975 4.31539C14.62 3.97113 13.7804 3.74142 12.9002 3.64766V2.10001C12.9002 1.60296 12.4973 1.20001 12.0002 1.20001C11.5031 1.20001 11.1002 1.60296 11.1002 2.10001V3.64766C10.22 3.74142 9.38039 3.97113 8.60283 4.3154L7.82974 2.97637C7.58122 2.54591 7.03079 2.39842 6.60032 2.64695C6.16986 2.89548 6.02237 3.44591 6.2709 3.87637L7.04474 5.21671C6.3456 5.72833 5.72851 6.34542 5.21689 7.04457L3.8763 6.27057C3.44583 6.02205 2.8954 6.16953 2.64688 6.6C2.39835 7.03046 2.54583 7.58089 2.9763 7.82942L4.31558 8.60265C3.97132 9.38021 3.7416 10.2198 3.64784 11.1H2.1002C1.60314 11.1 1.2002 11.503 1.2002 12C1.2002 12.4971 1.60314 12.9 2.1002 12.9H3.64784C3.7416 13.7802 3.97131 14.6198 4.31557 15.3973L2.9763 16.1706C2.54583 16.4191 2.39835 16.9695 2.64688 17.4C2.8954 17.8305 3.44583 17.9779 3.8763 17.7294L5.21688 16.9554C5.72845 17.6545 6.34549 18.2716 7.04457 18.7832L6.27065 20.1237C6.02212 20.5541 6.16961 21.1045 6.60007 21.3531C7.03053 21.6016 7.58096 21.4541 7.82949 21.0237L8.60263 19.6845C9.38025 20.0289 10.2199 20.2586 11.1002 20.3524V21.9C11.1002 22.3971 11.5031 22.8 12.0002 22.8C12.4973 22.8 12.9002 22.3971 12.9002 21.9V20.3524C13.7805 20.2586 14.6201 20.0289 15.3977 19.6845L16.1709 21.0237C16.4194 21.4541 16.9699 21.6016 17.4003 21.3531C17.8308 21.1046 17.9783 20.5541 17.7297 20.1237L16.9558 18.7832C17.6549 18.2716 18.2719 17.6546 18.7835 16.9555L20.1239 17.7294C20.5544 17.9779 21.1048 17.8305 21.3533 17.4C21.6019 16.9695 21.4544 16.4191 21.0239 16.1706L19.6848 15.3974C20.0291 14.6199 20.2588 13.7802 20.3525 12.9H21.9002C22.3973 12.9 22.8002 12.4971 22.8002 12C22.8002 11.503 22.3973 11.1 21.9002 11.1H20.3525C20.2588 10.2198 20.0291 9.38015 19.6848 8.60257L21.0239 7.82942C21.4544 7.58089 21.6019 7.03046 21.3533 6.6C21.1048 6.16953 20.5544 6.02205 20.1239 6.27057L18.7834 7.04449C18.2718 6.34537 17.6548 5.7283 16.9556 5.2167ZM12.0002 5.40001C10.8136 5.40001 9.7002 5.71313 8.73803 6.26126C8.72571 6.26918 8.71314 6.27685 8.70032 6.28426C8.68793 6.29141 8.67544 6.29823 8.66286 6.30473C7.68821 6.87709 6.8735 7.6925 6.30198 8.6677C6.29629 8.67853 6.29036 8.6893 6.28418 8.7C6.27776 8.71112 6.27113 8.72206 6.26431 8.7328C5.71441 9.69613 5.4002 10.8114 5.4002 12C5.4002 13.1885 5.71434 14.3037 6.26414 15.2669C6.27102 15.2777 6.2777 15.2888 6.28418 15.3C6.29041 15.3108 6.2964 15.3217 6.30213 15.3326C6.87403 16.3083 7.68938 17.1241 8.66479 17.6964C8.67663 17.7026 8.6884 17.709 8.70007 17.7158C8.7122 17.7228 8.7241 17.73 8.73577 17.7375C9.69846 18.2864 10.8127 18.6 12.0002 18.6C13.1879 18.6 14.3022 18.2863 15.265 17.7372C15.2766 17.7299 15.2883 17.7227 15.3003 17.7158C15.3119 17.7091 15.3235 17.7027 15.3352 17.6966C16.3098 17.1249 17.1246 16.3101 17.6965 15.3356C17.7027 15.3236 17.7092 15.3118 17.716 15.3C17.7231 15.2878 17.7304 15.2758 17.7379 15.264C18.2867 14.3014 18.6002 13.1873 18.6002 12C18.6002 10.8126 18.2866 9.69836 17.7377 8.7357C17.7303 8.72402 17.723 8.71212 17.716 8.7C17.7093 8.68831 17.7028 8.67654 17.6967 8.66469C17.1251 7.6907 16.311 6.87629 15.3371 6.30451C15.3247 6.29807 15.3123 6.29131 15.3001 6.28423C15.2874 6.2769 15.2749 6.26931 15.2627 6.26146C14.3005 5.71321 13.1869 5.40001 12.0002 5.40001Z" fill="#9EFF00"/>
</svg>
