<svg width="24" height="24" viewBox="0 0 24 24" fill="none" xmlns="http://www.w3.org/2000/svg">
<g clip-path="url(#clip0_92_59405)">
<path d="M4.44279 21.6451C5.11744 21.6451 5.65522 21.1074 5.65522 20.4327C5.65522 19.758 5.10767 19.2203 4.44279 19.2203C3.76813 19.2203 3.23036 19.7678 3.23036 20.4327C3.23036 21.1171 3.77791 21.6451 4.44279 21.6451ZM1.3726 14.2043C2.04726 14.2043 2.58503 13.647 2.58503 12.9821C2.58503 12.2977 2.0277 11.7697 1.3726 11.7697C0.69794 11.7697 0.150391 12.3172 0.150391 12.9821C0.150391 13.6568 0.707718 14.2043 1.3726 14.2043ZM4.44279 6.76349C5.11744 6.76349 5.65522 6.21594 5.65522 5.55106C5.65522 4.86662 5.10767 4.33863 4.44279 4.33863C3.76813 4.33863 3.23036 4.8764 3.23036 5.55106C3.23036 6.22572 3.77791 6.76349 4.44279 6.76349ZM11.9422 3.63464C12.6169 3.63464 13.1547 3.08709 13.1547 2.41243C13.1547 1.73777 12.6071 1.2 11.9422 1.2C11.2578 1.2 10.7298 1.74755 10.7298 2.41243C10.7298 3.09687 11.2676 3.63464 11.9422 3.63464ZM19.432 6.74394C20.1066 6.74394 20.6444 6.19639 20.6444 5.53151C20.6444 4.84707 20.0968 4.31907 19.432 4.31907C18.7475 4.31907 18.2097 4.85685 18.2097 5.53151C18.2097 6.20617 18.7573 6.74394 19.432 6.74394ZM22.5119 14.2043C23.1866 14.2043 23.7341 13.647 23.7341 12.9821C23.7341 12.2977 23.1768 11.7697 22.5119 11.7697C21.8275 11.7697 21.2897 12.3172 21.2897 12.9821C21.2897 13.6568 21.847 14.2043 22.5119 14.2043ZM19.4222 21.6549C20.0968 21.6549 20.6346 21.1171 20.6346 20.4425C20.6346 19.7678 20.087 19.23 19.4222 19.23C18.7377 19.23 18.2 19.7775 18.2 20.4425C18.2 21.1269 18.7475 21.6549 19.4222 21.6549ZM11.9422 20.1002C15.8631 20.1002 19.0506 16.9225 19.0506 12.9821C19.0506 9.30568 16.2542 6.28439 12.6658 5.92262L12.656 13.1288C12.656 13.5198 12.3138 13.8621 11.9422 13.8523C11.5121 13.8327 11.2089 13.5296 11.2089 13.1092V5.92262C7.6303 6.28439 4.82411 9.30568 4.82411 12.9821C4.82411 16.9323 8.02141 20.1002 11.9422 20.1002Z" fill="#9EFF00"/>
</g>
<defs>
<clipPath id="clip0_92_59405">
<rect width="23.5837" height="21.99" fill="white" transform="translate(0.150391 1.2)"/>
</clipPath>
</defs>
</svg>
