<svg width="24" height="24" viewBox="0 0 24 24" fill="none" xmlns="http://www.w3.org/2000/svg">
<g clip-path="url(#clip0_100_3654)">
<g clip-path="url(#clip1_100_3654)">
<path d="M2.90775 22.6562C4.47471 24.2331 6.50373 24.2533 8.05061 22.7064C9.28611 21.4709 10.4814 18.6785 11.3955 17.2823L13.8263 19.7231C14.5696 20.4765 15.4736 20.4765 16.1767 19.7533L17.0406 18.8895C17.7738 18.1461 17.7638 17.3024 17.0105 16.549L9.02494 8.55349C8.26155 7.80015 7.40775 7.7901 6.67449 8.52336L5.81066 9.38717C5.08744 10.1104 5.08744 10.9843 5.84079 11.7376L8.27159 14.1685C6.88543 15.0825 4.10307 16.2778 2.85753 17.5133C1.3207 19.0602 1.33074 21.0993 2.90775 22.6562ZM5.58968 21.3504C4.89659 21.3504 4.34414 20.7879 4.34414 20.1048C4.34414 19.4218 4.89659 18.8693 5.58968 18.8693C6.27271 18.8693 6.82516 19.4218 6.82516 20.1048C6.82516 20.7879 6.27271 21.3504 5.58968 21.3504ZM18.2058 16.0869L22.1031 12.1897C23.218 11.0747 23.1879 9.7488 22.0529 8.59363L21.5406 8.07135C20.496 9.42737 17.5127 11.0145 16.9401 10.4419C16.8498 10.3515 16.8396 10.1707 16.9703 10.03C18.1856 8.81469 18.9792 7.62939 19.16 5.70082L13.997 0.527821C13.0428 -0.42642 11.3855 -0.115036 10.9334 1.693C10.3006 4.26443 9.72807 5.76108 9.1053 6.99658L18.2058 16.0869Z" fill="#9EFF00"/>
</g>
</g>
<defs>
<clipPath id="clip0_100_3654">
<rect width="24" height="24" fill="white"/>
</clipPath>
<clipPath id="clip1_100_3654">
<rect width="21.2072" height="24.0076" fill="white" transform="translate(1.71484)"/>
</clipPath>
</defs>
</svg>
