<svg width="24" height="24" viewBox="0 0 24 24" fill="none" xmlns="http://www.w3.org/2000/svg">
<g clip-path="url(#clip0_92_53545)">
<g clip-path="url(#clip1_92_53545)">
<path d="M3.59673 11.4298C3.81573 11.4045 4.04316 11.3877 4.26216 11.3877C4.49801 11.3877 4.72544 11.4045 4.95287 11.4382V9.60193H3.59673V11.4298ZM3.59673 8.44796H4.95287V6.6875C4.95287 5.81148 5.41615 5.36505 6.25847 5.36505H8.00208V4.00891H6.24162C4.48117 4.00891 3.59673 4.8765 3.59673 6.62012V8.44796ZM9.15608 5.36505H12.9549V4.00891H9.15608V5.36505ZM14.1005 5.36505H17.8994V4.00891H14.1005V5.36505ZM23.4587 8.44796V6.62012C23.4587 4.8765 22.5743 4.00891 20.8138 4.00891H19.0534V5.36505H20.797C21.6393 5.36505 22.1026 5.81148 22.1026 6.6875V8.44796H23.4587ZM23.4587 13.923V9.60193H22.1026V13.923H23.4587ZM20.8138 19.5161C22.5743 19.5161 23.4587 18.6485 23.4587 16.9049V15.077H22.1026V16.8375C22.1026 17.7135 21.6393 18.16 20.797 18.16H19.0534V19.5161H20.8138ZM14.1005 19.5161H17.8994V18.16H14.1005V19.5161ZM8.9876 19.5077L12.9549 19.5161V18.16H9.51828C9.40874 18.6401 9.23191 19.0865 8.9876 19.5077ZM4.27901 21.1081C6.62067 21.1081 8.55798 19.1707 8.55798 16.8291C8.55798 14.4958 6.61225 12.5501 4.27059 12.5501C1.93735 12.5501 0 14.4958 0 16.8291C0 19.1707 1.94577 21.1081 4.27901 21.1081ZM4.27901 20.0973C2.46801 20.0973 1.01921 18.6401 1.01921 16.8291C1.01921 15.0265 2.46801 13.5608 4.27059 13.5608C6.08159 13.5608 7.53882 15.0265 7.54723 16.8291C7.55564 18.6401 6.08159 20.0973 4.27901 20.0973ZM4.27059 19.3645C5.66885 19.3645 6.80598 18.2189 6.80598 16.8375C6.80598 15.4477 5.66042 14.3021 4.27059 14.3021C2.88075 14.3021 1.74361 15.4477 1.74361 16.8375C1.74361 18.2189 2.88917 19.3645 4.27059 19.3645Z" fill="#9EFF00"/>
</g>
</g>
<defs>
<clipPath id="clip0_92_53545">
<rect width="24" height="24" fill="white"/>
</clipPath>
<clipPath id="clip1_92_53545">
<rect width="23.4587" height="18.708" fill="white" transform="translate(0 2.40002)"/>
</clipPath>
</defs>
</svg>
