<svg width="24" height="24" viewBox="0 0 24 24" fill="none" xmlns="http://www.w3.org/2000/svg">
<path d="M2.75851 13.2154C3.3411 13.2154 3.80315 12.7534 3.80315 12.1808C3.80315 11.5982 3.3411 11.1362 2.75851 11.1362C2.17592 11.1362 1.71387 11.5982 1.71387 12.1808C1.71387 12.7534 2.17592 13.2154 2.75851 13.2154ZM5.12905 6.17411C5.71163 6.17411 6.17369 5.70201 6.17369 5.12948C6.17369 4.54689 5.71163 4.08483 5.12905 4.08483C4.5565 4.08483 4.0844 4.54689 4.0844 5.12948C4.0844 5.70201 4.5565 6.17411 5.12905 6.17411ZM12.1905 3.80358C12.763 3.80358 13.225 3.34153 13.225 2.75894C13.225 2.18639 12.763 1.71429 12.1905 1.71429C11.6079 1.71429 11.1458 2.18639 11.1458 2.75894C11.1458 3.34153 11.6079 3.80358 12.1905 3.80358ZM19.2418 6.17411C19.8244 6.17411 20.2864 5.70201 20.2864 5.12948C20.2864 4.54689 19.8244 4.08483 19.2418 4.08483C18.6592 4.08483 18.1972 4.54689 18.1972 5.12948C18.1972 5.70201 18.6592 6.17411 19.2418 6.17411ZM21.6224 13.2154C22.1949 13.2154 22.657 12.7534 22.657 12.1808C22.657 11.5982 22.1949 11.1362 21.6224 11.1362C21.0398 11.1362 20.5777 11.5982 20.5777 12.1808C20.5777 12.7534 21.0398 13.2154 21.6224 13.2154ZM19.9048 20.6083C20.3467 20.6083 20.7284 20.2467 20.7284 19.8047C20.7284 19.3527 20.3467 18.981 19.9048 18.981H18.6793V12.3214C18.6793 8.65515 15.8467 5.82255 12.1905 5.82255C8.52413 5.82255 5.71163 8.65515 5.71163 12.3214V18.981H4.4661C4.02413 18.981 3.67258 19.3527 3.67258 19.8047C3.67258 20.2467 4.02413 20.6083 4.4661 20.6083H19.9048ZM13.0342 12.3516V18.981H11.3567V12.3516C11.3567 11.8895 11.7284 11.5078 12.1905 11.5078C12.6525 11.5078 13.0342 11.8895 13.0342 12.3516Z" fill="#9EFF00"/>
</svg>
