<svg width="24" height="24" viewBox="0 0 24 24" fill="none" xmlns="http://www.w3.org/2000/svg">
<g clip-path="url(#clip0_92_53632)">
<path d="M8.4813 21.6831C8.66211 21.6831 8.79269 21.5525 8.82282 21.3617C9.14425 18.6798 9.27483 18.6094 12.007 18.1675C12.2179 18.1273 12.3484 18.0268 12.3484 17.826C12.3484 17.6351 12.2179 17.5146 12.0472 17.4844C9.29492 16.9622 9.14425 16.9722 8.82282 14.2903C8.79269 14.0994 8.66211 13.9688 8.4813 13.9688C8.29046 13.9688 8.15988 14.0994 8.13978 14.2802C7.78823 17.0023 7.69782 17.0927 4.91546 17.4844C4.7447 17.5046 4.61412 17.6351 4.61412 17.826C4.61412 18.0168 4.7447 18.1273 4.91546 18.1675C7.69782 18.6998 7.77818 18.6998 8.13978 21.3818C8.15988 21.5525 8.29046 21.6831 8.4813 21.6831ZM3.7101 12.9342C3.85073 12.9342 3.93108 12.8338 3.96121 12.7032C4.30273 10.7948 4.31278 10.6742 6.33175 10.3327C6.46233 10.3025 6.56278 10.2222 6.56278 10.0815C6.56278 9.94092 6.46233 9.85052 6.33175 9.83043C4.31278 9.47886 4.30273 9.35833 3.96121 7.44985C3.93108 7.31926 3.85073 7.22886 3.7101 7.22886C3.56947 7.22886 3.48912 7.31926 3.45899 7.44985C3.11747 9.35833 3.10742 9.47886 1.08845 9.83043C0.957869 9.85052 0.857422 9.94092 0.857422 10.0815C0.857422 10.2222 0.957869 10.3025 1.08845 10.3327C3.10742 10.6742 3.11747 10.7948 3.45899 12.7032C3.48912 12.8338 3.56947 12.9342 3.7101 12.9342ZM9.21456 6.50565C9.3351 6.50565 9.39537 6.43534 9.41546 6.32485C9.75696 4.71771 9.73691 4.65743 11.4244 4.31592C11.5349 4.29583 11.6152 4.22552 11.6152 4.11502C11.6152 3.99449 11.5349 3.92417 11.4244 3.90409C9.73691 3.56257 9.75696 3.5023 9.41546 1.9052C9.39537 1.79471 9.3351 1.71436 9.21456 1.71436C9.09403 1.71436 9.03376 1.79471 9.01367 1.9052C8.67216 3.5023 8.69224 3.56257 7.00475 3.90409C6.89425 3.92417 6.8139 3.99449 6.8139 4.11502C6.8139 4.22552 6.89425 4.29583 7.00475 4.31592C8.69224 4.65743 8.67216 4.71771 9.01367 6.32485C9.03376 6.43534 9.09403 6.50565 9.21456 6.50565ZM17.5114 10.0514C17.6521 10.0514 17.7324 9.961 17.7626 9.83043C18.1041 7.92195 18.1141 7.80141 20.1331 7.44985C20.2737 7.42976 20.3641 7.33936 20.3641 7.19873C20.3641 7.05811 20.2737 6.97774 20.1331 6.94762C18.1141 6.6061 18.1041 6.48556 17.7626 4.57708C17.7324 4.4465 17.6521 4.34605 17.5114 4.34605C17.3708 4.34605 17.2905 4.4465 17.2603 4.57708C16.9188 6.48556 16.9088 6.6061 14.8898 6.94762C14.7592 6.97774 14.6588 7.05811 14.6588 7.19873C14.6588 7.33936 14.7592 7.42976 14.8898 7.44985C16.9088 7.80141 16.9188 7.92195 17.2603 9.83043C17.2905 9.961 17.3708 10.0514 17.5114 10.0514ZM20.8664 21.5224C21.2882 21.9543 22.0114 21.9543 22.4132 21.5224C22.825 21.0805 22.825 20.3974 22.4132 19.9755L12.8608 10.3929C12.4389 9.97105 11.7157 9.97105 11.3139 10.3929C10.892 10.8349 10.9021 11.528 11.3139 11.9498L20.8664 21.5224ZM15.0203 14.6217L12.0772 11.6686C11.8965 11.4878 11.8362 11.2869 12.017 11.1162C12.1677 10.9554 12.3786 10.9956 12.5695 11.1865L15.5226 14.1396L15.0203 14.6217Z" fill="#9EFF00"/>
</g>
<defs>
<clipPath id="clip0_92_53632">
<rect width="21.8647" height="20.1797" fill="white" transform="translate(0.857422 1.71436)"/>
</clipPath>
</defs>
</svg>
