<svg width="24" height="24" viewBox="0 0 24 24" fill="none" xmlns="http://www.w3.org/2000/svg">
<path fill-rule="evenodd" clip-rule="evenodd" d="M7.53679 6.26359C7.88826 6.61506 7.88826 7.18491 7.53679 7.53638L3.07318 12L7.53679 16.4636C7.88826 16.8151 7.88826 17.3849 7.53679 17.7364C7.18532 18.0879 6.61547 18.0879 6.26399 17.7364L1.16399 12.6364C0.812523 12.2849 0.812523 11.7151 1.16399 11.3636L6.26399 6.26359C6.61547 5.91212 7.18532 5.91212 7.53679 6.26359ZM16.464 6.26359C16.8155 5.91212 17.3853 5.91212 17.7368 6.26359L22.8368 11.3636C23.1883 11.7151 23.1883 12.2849 22.8368 12.6364L17.7368 17.7364C17.3853 18.0879 16.8155 18.0879 16.464 17.7364C16.1125 17.3849 16.1125 16.8151 16.464 16.4636L20.9276 12L16.464 7.53638C16.1125 7.18491 16.1125 6.61506 16.464 6.26359Z" fill="#9EFF00"/>
<path fill-rule="evenodd" clip-rule="evenodd" d="M13.6533 2.41307C14.1431 2.49753 14.4718 2.96307 14.3873 3.4529L11.3873 20.8529C11.3029 21.3427 10.8373 21.6714 10.3475 21.5869C9.85765 21.5024 9.52902 21.0369 9.61348 20.5471L12.6135 3.14707C12.6979 2.65724 13.1635 2.32862 13.6533 2.41307Z" fill="#9EFF00"/>
</svg>
