<svg width="24" height="24" viewBox="0 0 24 24" fill="none" xmlns="http://www.w3.org/2000/svg">
<path d="M8.62637 19.7086H17.2799C18.9568 19.7086 19.7953 18.862 19.7953 17.1524V7.27785C19.7953 5.57646 18.9568 4.7217 17.2799 4.7217H9.48928L10.8244 6.03234H17.2066C18.0532 6.03234 18.4847 6.48007 18.4847 7.29414V17.1362C18.4847 17.9502 18.0532 18.3979 17.2147 18.3979H8.6915C7.85301 18.3979 7.41342 17.9502 7.41342 17.1362V11.3237H6.10278V17.1524C6.10278 18.862 6.9494 19.7086 8.62637 19.7086ZM9.86375 9.52469H15.8553C16.1402 9.52469 16.36 9.3049 16.36 9.01995C16.36 8.74319 16.1402 8.5234 15.8553 8.5234H9.86375C9.56255 8.5234 9.35089 8.74319 9.35089 9.01995C9.35089 9.3049 9.56255 9.52469 9.86375 9.52469ZM9.86375 12.7158H15.8553C16.1402 12.7158 16.36 12.4879 16.36 12.2029C16.36 11.9262 16.1402 11.7145 15.8553 11.7145H9.86375C9.56255 11.7145 9.35089 11.9262 9.35089 12.2029C9.35089 12.4879 9.56255 12.7158 9.86375 12.7158ZM9.86375 15.8987H15.8553C16.1402 15.8987 16.36 15.6872 16.36 15.4103C16.36 15.1254 16.1402 14.8975 15.8553 14.8975H9.86375C9.56255 14.8975 9.35089 15.1254 9.35089 15.4103C9.35089 15.6872 9.56255 15.8987 9.86375 15.8987ZM3.75013 8.01865C3.74199 8.32799 4.11646 8.43386 4.31997 8.23032L5.56549 6.9848L6.95754 10.4201C7.02267 10.5748 7.18548 10.6481 7.33201 10.5911L8.14607 10.2655C8.28446 10.2003 8.34145 10.0294 8.26818 9.87473L6.81101 6.49635L8.56125 6.42309C8.87059 6.4068 9.02526 6.11375 8.80546 5.87767L4.35254 1.30263C4.14902 1.09912 3.83154 1.21309 3.8234 1.51429L3.75013 8.01865Z" fill="#9EFF00"/>
</svg>
