<svg width="24" height="24" viewBox="0 0 24 24" fill="none" xmlns="http://www.w3.org/2000/svg">
<g clip-path="url(#clip0_92_53346)">
<path d="M0.900391 12.1261C0.900391 16.3614 3.34421 20.099 6.68374 21.9346C7.84483 22.587 8.80688 21.0389 7.52415 20.2981C4.74858 18.7499 2.79132 15.6757 2.79132 12.1261C2.79132 6.90675 6.94913 2.72681 12.1685 2.72681C17.3879 2.72681 21.5789 6.90675 21.5789 12.1261C21.5789 12.7896 22.0875 13.1103 22.5742 13.1103C23.0275 13.1103 23.4587 12.7786 23.4587 12.1261C23.4587 5.95576 18.3389 0.846954 12.1685 0.846954C6.00919 0.846954 0.900391 5.95576 0.900391 12.1261ZM5.36784 12.1261C5.36784 14.5921 6.71691 16.6599 8.33138 17.6994C9.44824 18.4513 10.4103 16.9585 9.47036 16.3171C8.09917 15.4214 7.19241 13.8844 7.19241 12.1261C7.19241 9.33952 9.40401 7.12791 12.1685 7.12791C14.933 7.12791 17.0672 9.32846 17.1668 12.1261C17.1888 12.6348 17.5759 13.0329 18.0845 13.0329C18.5932 13.0329 18.9913 12.6348 18.9913 12.1261C18.9913 8.38852 15.9061 5.30333 12.1685 5.30333C8.45302 5.30333 5.36784 8.38852 5.36784 12.1261ZM11.7483 20.1322C11.7373 20.5634 12.2459 20.7072 12.5224 20.4307L14.2143 18.7388L16.1052 23.4053C16.1936 23.6154 16.4148 23.715 16.6138 23.6375L17.7086 23.1952C17.9076 23.1067 17.9851 22.8745 17.8855 22.6645L15.9061 18.0643L18.2836 17.9758C18.7038 17.9537 18.9028 17.5446 18.6043 17.235L12.5666 11.0203C12.2791 10.7328 11.8589 10.8987 11.8479 11.3078L11.7483 20.1322Z" fill="#9EFF00"/>
</g>
<defs>
<clipPath id="clip0_92_53346">
<rect width="24" height="24" fill="white"/>
</clipPath>
</defs>
</svg>
