<svg width="24" height="24" viewBox="0 0 24 24" fill="none" xmlns="http://www.w3.org/2000/svg">
<path d="M13.0308 3.9108C13.4887 3.9108 13.837 3.56242 13.837 3.10456C13.837 2.65665 13.4887 2.30827 13.0308 2.30827H5.7448L7.32742 3.9108H13.0308ZM15.8278 6.75753C16.2757 6.75753 16.634 6.3992 16.634 5.94133C16.634 5.49342 16.2757 5.155 15.8278 5.155H8.52185L10.1045 6.75753H15.8278ZM18.565 9.5943C19.0129 9.5943 19.3614 9.23597 19.3614 8.77811C19.3614 8.33019 19.0129 7.99178 18.565 7.99178H11.2989L12.8815 9.5943H18.565ZM21.3322 10.8286H14.076C14.6732 11.4357 14.9419 11.804 14.9817 12.4311H21.3322C21.78 12.4311 22.1384 12.0827 22.1384 11.6249C22.1384 11.1769 21.78 10.8286 21.3322 10.8286ZM12.125 20.6627L8.55171 12.3117L8.07394 13.1278L13.0308 13.4065C13.6977 13.4463 14.0162 12.7296 13.5385 12.2419L3.6844 2.16892C3.24645 1.72101 2.5696 1.96985 2.5696 2.59693L2.40039 16.6116C2.40039 17.2983 3.16682 17.5771 3.60478 17.0694L6.80983 13.5259L5.88415 13.2871L9.33804 21.8273C9.47739 22.1657 9.82577 22.3249 10.1343 22.1856L11.8464 21.4789C12.1649 21.3594 12.2744 20.9912 12.125 20.6627Z" fill="#9EFF00"/>
</svg>
