<svg width="24" height="24" viewBox="0 0 24 24" fill="none" xmlns="http://www.w3.org/2000/svg">
<g clip-path="url(#clip0_92_59494)">
<path d="M3.4315 11.9598C3.4315 11.0458 3.57213 10.1618 3.83329 9.34822L2.25628 8.68527C1.91476 9.71987 1.71387 10.8148 1.71387 11.9598C1.71387 13.0948 1.91476 14.1998 2.26632 15.2344L3.83329 14.5714C3.57213 13.7578 3.4315 12.8739 3.4315 11.9598ZM8.05204 4.34599L7.40918 2.79911C5.42034 3.79353 3.78306 5.43081 2.78865 7.41965L4.35561 8.07255C5.15918 6.47546 6.46498 5.16965 8.05204 4.34599ZM11.9494 3.42189C12.8634 3.42189 13.7474 3.56251 14.581 3.83372L15.2239 2.26675C14.1893 1.91519 13.0844 1.71429 11.9494 1.71429C10.8143 1.71429 9.69936 1.91519 8.66476 2.26675L9.3277 3.83372C10.1514 3.56251 11.0353 3.42189 11.9494 3.42189ZM19.5632 8.06251L21.1201 7.41965C20.1157 5.43081 18.4784 3.79353 16.4896 2.78907L15.8467 4.34599C17.4337 5.15961 18.7496 6.46541 19.5632 8.06251ZM20.4974 11.9598C20.4974 12.8739 20.3567 13.7578 20.0956 14.5815L21.6525 15.2445C22.0041 14.2098 22.2049 13.0948 22.2049 11.9598C22.2049 10.8148 22.0041 9.70983 21.6525 8.67523L20.0855 9.33818C20.3567 10.1618 20.4974 11.0458 20.4974 11.9598ZM15.8467 19.5636L16.4896 21.1306C18.4884 20.1262 20.1257 18.4888 21.1101 16.5L19.5732 15.8572C18.7596 17.4543 17.4438 18.75 15.8467 19.5636ZM11.9594 20.4978C11.0353 20.4978 10.1514 20.3571 9.3277 20.086L8.6748 21.6529C9.7094 22.0045 10.8244 22.2053 11.9594 22.2053C13.0944 22.2053 14.1994 22.0045 15.2239 21.6629L14.571 20.096C13.7474 20.3571 12.8734 20.4978 11.9594 20.4978ZM4.35561 15.8572L2.79868 16.5C3.80315 18.4888 5.42034 20.1262 7.40918 21.1205L8.05204 19.5536C6.46498 18.74 5.15918 17.4442 4.35561 15.8572ZM11.9393 18.971C15.8467 18.971 18.9605 15.8572 18.9505 11.9598C18.9405 8.06251 15.8266 4.94867 11.9293 4.94867C8.03194 4.94867 4.9382 8.05246 4.9382 11.9598C4.9382 15.8672 8.04199 18.971 11.9393 18.971Z" fill="#9EFF00"/>
</g>
<defs>
<clipPath id="clip0_92_59494">
<rect width="20.491" height="20.5011" fill="white" transform="translate(1.71387 1.71429)"/>
</clipPath>
</defs>
</svg>
