<svg width="24" height="24" viewBox="0 0 24 24" fill="none" xmlns="http://www.w3.org/2000/svg">
<path d="M3.42871 20.6919C3.42871 21.4755 3.59947 21.9476 4.34278 22.3091C6.06041 23.0524 8.43095 23.5447 11.2736 23.5447C14.0861 23.5447 17.2501 23.1228 19.5202 22.0179C20.7256 21.4453 21.0169 20.9129 21.0169 19.6674V4.24888C21.0169 2.62165 20.2937 1.87835 18.7267 1.87835H17.7825V1.47657C17.7825 0.482143 17.2803 0 16.3963 0C16.095 0 15.7334 0.0703125 15.3015 0.210938C12.268 1.20536 9.49567 1.83817 5.93987 1.83817H5.1363C4.05148 1.83817 3.42871 2.47098 3.42871 3.45536V20.6919ZM6.99456 9.45197V6.05692C6.99456 5.91629 7.095 5.79576 7.23563 5.78571C9.57604 5.69531 11.6653 5.28348 13.8049 4.5C13.9254 4.44978 14.1363 4.5 14.1363 4.74107V8.28683C14.1363 8.37723 14.0861 8.46764 13.9957 8.49777C12.1273 9.26117 9.66643 9.69309 7.23563 9.69309C7.10505 9.69309 6.99456 9.61269 6.99456 9.45197ZM7.50683 21.827C11.4544 21.7165 15.1207 20.6116 17.1095 19.0948C17.5716 18.7433 17.7825 18.3817 17.7825 17.4978V3.49553H18.7368C19.1787 3.49553 19.3997 3.73661 19.3997 4.24888V19.5569C19.3997 20.1596 19.3093 20.3805 18.7368 20.6317C16.7378 21.5055 13.9254 22.0681 11.2736 22.0681C10.008 22.0681 8.81264 21.9978 7.50683 21.827Z" fill="#9EFF00"/>
</svg>
