<svg width="24" height="24" viewBox="0 0 24 24" fill="none" xmlns="http://www.w3.org/2000/svg">
<path d="M6.21107 23.4877H17.4309C19.0983 23.4877 20.2133 22.4231 20.2133 20.836V3.51901C20.2133 1.93196 19.0983 0.857178 17.4309 0.857178H6.21107C4.54367 0.857178 3.42871 1.93196 3.42871 3.51901V20.836C3.42871 22.4231 4.54367 23.4877 6.21107 23.4877ZM6.41197 21.8705C5.54813 21.8705 5.0459 21.3884 5.0459 20.5648V3.79022C5.0459 2.96655 5.54813 2.47437 6.41197 2.47437H17.2301C18.0839 2.47437 18.5961 2.96655 18.5961 3.79022V20.5648C18.5961 21.3884 18.0839 21.8705 17.2301 21.8705H6.41197ZM7.96889 10.1083H15.6832C16.2156 10.1083 16.5771 9.75672 16.5771 9.19423V7.02459C16.5771 6.46209 16.2156 6.11053 15.6832 6.11053H7.96889C7.43652 6.11053 7.07492 6.46209 7.07492 7.02459V9.19423C7.07492 9.75672 7.43652 10.1083 7.96889 10.1083ZM7.96889 18.2143H15.6832C16.2156 18.2143 16.5771 17.8527 16.5771 17.3003V15.1205C16.5771 14.5681 16.2156 14.2065 15.6832 14.2065H7.96889C7.43652 14.2065 7.07492 14.5681 7.07492 15.1205V17.3003C7.07492 17.8527 7.43652 18.2143 7.96889 18.2143Z" fill="#9EFF00"/>
</svg>
