<svg width="24" height="24" viewBox="0 0 24 24" fill="none" xmlns="http://www.w3.org/2000/svg">
<path d="M3.93679 2.66351C3.58531 2.31203 3.01547 2.31203 2.66399 2.66351C2.31252 3.01498 2.31252 3.58483 2.66399 3.9363L6.5276 7.7999H3.30039C2.80333 7.7999 2.40039 8.20285 2.40039 8.6999C2.40039 9.19696 2.80333 9.5999 3.30039 9.5999H8.70039C9.19745 9.5999 9.60039 9.19696 9.60039 8.6999V3.2999C9.60039 2.80285 9.19745 2.3999 8.70039 2.3999C8.20333 2.3999 7.80039 2.80285 7.80039 3.2999V6.52711L3.93679 2.66351Z" fill="#9EFF00"/>
<path d="M16.2004 3.2999C16.2004 2.80285 15.7974 2.3999 15.3004 2.3999C14.8033 2.3999 14.4004 2.80285 14.4004 3.2999V8.6999C14.4004 9.19696 14.8033 9.5999 15.3004 9.5999H20.7004C21.1974 9.5999 21.6004 9.19696 21.6004 8.6999C21.6004 8.20285 21.1974 7.7999 20.7004 7.7999H17.4732L21.3368 3.9363C21.6883 3.58483 21.6883 3.01498 21.3368 2.66351C20.9853 2.31203 20.4155 2.31203 20.064 2.66351L16.2004 6.52711V3.2999Z" fill="#9EFF00"/>
<path d="M3.93679 21.3363L7.80039 17.4727V20.6999C7.80039 21.197 8.20333 21.5999 8.70039 21.5999C9.19745 21.5999 9.60039 21.197 9.60039 20.6999V15.2999C9.60039 14.8028 9.19745 14.3999 8.70039 14.3999H3.30039C2.80333 14.3999 2.40039 14.8028 2.40039 15.2999C2.40039 15.797 2.80333 16.1999 3.30039 16.1999H6.5276L2.66399 20.0635C2.31252 20.415 2.31252 20.9848 2.66399 21.3363C3.01547 21.6878 3.58531 21.6878 3.93679 21.3363Z" fill="#9EFF00"/>
<path d="M16.2004 17.4727L20.064 21.3363C20.4155 21.6878 20.9853 21.6878 21.3368 21.3363C21.6883 20.9848 21.6883 20.415 21.3368 20.0635L17.4732 16.1999H20.7004C21.1974 16.1999 21.6004 15.797 21.6004 15.2999C21.6004 14.8028 21.1974 14.3999 20.7004 14.3999H15.3004C14.8033 14.3999 14.4004 14.8028 14.4004 15.2999V20.6999C14.4004 21.197 14.8033 21.5999 15.3004 21.5999C15.7974 21.5999 16.2004 21.197 16.2004 20.6999V17.4727Z" fill="#9EFF00"/>
</svg>
