<svg width="24" height="24" viewBox="0 0 24 24" fill="none" xmlns="http://www.w3.org/2000/svg">
<g clip-path="url(#clip0_92_59415)">
<path d="M2.67832 13.9621H8.7422C10.1619 13.9621 10.9891 13.1535 10.9891 11.7527V5.6888C10.9891 4.28799 10.1619 3.47947 8.7422 3.47947H2.67832C1.26812 3.47947 0.450195 4.27859 0.450195 5.6888V11.7527C0.450195 13.1629 1.26812 13.9621 2.67832 13.9621ZM14.9001 14.0842H21.0863C22.5529 14.0842 23.3896 13.257 23.3896 11.8279V5.62299C23.3896 4.18458 22.5529 3.35725 21.0863 3.35725H14.9001C13.4429 3.35725 12.6062 4.18458 12.6062 5.62299V11.8279C12.6062 13.257 13.4429 14.0842 14.9001 14.0842ZM14.919 12.5988C14.3643 12.5988 14.0916 12.3262 14.0916 11.7621V5.6794C14.0916 5.11532 14.3643 4.84268 14.919 4.84268H21.0674C21.641 4.84268 21.9042 5.11532 21.9042 5.6794V11.7621C21.9042 12.3262 21.641 12.5988 21.0674 12.5988H14.919ZM1.1647 17.4782C0.779244 17.4782 0.450195 17.8166 0.450195 18.2397C0.450195 18.6627 0.779244 18.9918 1.1647 18.9918H4.20135V17.4782H1.1647ZM5.83719 20.496C7.07818 20.496 8.09353 19.4807 8.09353 18.2397C8.09353 16.9893 7.07818 15.9739 5.83719 15.9739C4.59621 15.9739 3.58086 16.9893 3.58086 18.2397C3.58086 19.4807 4.59621 20.496 5.83719 20.496ZM5.83719 19.3396C5.21671 19.3396 4.73723 18.8507 4.73723 18.2303C4.73723 17.6097 5.21671 17.1303 5.83719 17.1303C6.44828 17.1303 6.93716 17.6097 6.93716 18.2303C6.93716 18.8507 6.44828 19.3396 5.83719 19.3396ZM7.33201 17.4782V18.9918H22.6281C23.0512 18.9918 23.3896 18.6627 23.3896 18.2397C23.3896 17.8166 23.0512 17.4782 22.6281 17.4782H7.33201Z" fill="#9EFF00"/>
</g>
<defs>
<clipPath id="clip0_92_59415">
<rect width="22.9394" height="17.496" fill="white" transform="translate(0.450195 3)"/>
</clipPath>
</defs>
</svg>
