<svg width="30" height="29" viewBox="0 0 30 29" fill="none" xmlns="http://www.w3.org/2000/svg">
<g filter="url(#filter0_d_92_53587)">
<path fill-rule="evenodd" clip-rule="evenodd" d="M8.47812 5.55887C8.67178 4.92948 9.25329 4.5 9.91179 4.5H12C12.4142 4.5 12.75 4.16421 12.75 3.75C12.75 3.33579 12.4142 3 12 3H9.91179C8.59478 3 7.43177 3.85897 7.04446 5.11774L4.63266 12.9561C4.54472 13.2419 4.5 13.5393 4.5 13.8383V18C4.5 19.6569 5.84315 21 7.5 21H22.5C24.1569 21 25.5 19.6569 25.5 18V13.8383C25.5 13.5393 25.4553 13.2419 25.3673 12.9561L22.9555 5.11774C22.5682 3.85897 21.4052 3 20.0882 3H18C17.5858 3 17.25 3.33579 17.25 3.75C17.25 4.16421 17.5858 4.5 18 4.5H20.0882C20.7467 4.5 21.3282 4.92948 21.5219 5.55887L23.7345 12.75H20.8906C19.7543 12.75 18.7155 13.392 18.2073 14.4084L17.9511 14.9208C17.697 15.429 17.1776 15.75 16.6094 15.75H13.3906C12.8224 15.75 12.303 15.429 12.0489 14.9208L11.7927 14.4084C11.2845 13.392 10.2457 12.75 9.10942 12.75H6.26547L8.47812 5.55887Z" fill="#9EFF00"/>
<path fill-rule="evenodd" clip-rule="evenodd" d="M15 2.25C15.4142 2.25 15.75 2.58579 15.75 3V9.43934L17.4697 7.71967C17.7626 7.42678 18.2374 7.42678 18.5303 7.71967C18.8232 8.01256 18.8232 8.48744 18.5303 8.78033L15.5303 11.7803C15.2374 12.0732 14.7626 12.0732 14.4697 11.7803L11.4697 8.78033C11.1768 8.48744 11.1768 8.01256 11.4697 7.71967C11.7626 7.42678 12.2374 7.42678 12.5303 7.71967L14.25 9.43934V3C14.25 2.58579 14.5858 2.25 15 2.25Z" fill="#9EFF00"/>
</g>
<defs>
<filter id="filter0_d_92_53587" x="-1" y="0" width="32" height="32" filterUnits="userSpaceOnUse" color-interpolation-filters="sRGB">
<feFlood flood-opacity="0" result="BackgroundImageFix"/>
<feColorMatrix in="SourceAlpha" type="matrix" values="0 0 0 0 0 0 0 0 0 0 0 0 0 0 0 0 0 0 127 0" result="hardAlpha"/>
<feOffset dy="4"/>
<feGaussianBlur stdDeviation="2"/>
<feComposite in2="hardAlpha" operator="out"/>
<feColorMatrix type="matrix" values="0 0 0 0 0 0 0 0 0 0 0 0 0 0 0 0 0 0 0.25 0"/>
<feBlend mode="normal" in2="BackgroundImageFix" result="effect1_dropShadow_92_53587"/>
<feBlend mode="normal" in="SourceGraphic" in2="effect1_dropShadow_92_53587" result="shape"/>
</filter>
</defs>
</svg>
