<svg width="24" height="24" viewBox="0 0 24 24" fill="none" xmlns="http://www.w3.org/2000/svg">
<path d="M0.857422 20.4711C0.857422 20.9533 1.17885 21.2647 1.66099 21.2647H21.6398C22.0817 21.2647 22.4534 20.9131 22.4534 20.4611C22.4534 20.0192 22.0817 19.6575 21.6398 19.6575H2.75586C2.54492 19.6575 2.47461 19.5873 2.47461 19.3763V3.49571C2.47461 3.06379 2.113 2.69214 1.67104 2.69214C1.21903 2.69214 0.857422 3.06379 0.857422 3.49571V20.4711ZM1.91211 14.2234L8.37081 10.4868L13.0215 14.4745L21.2882 9.55263L20.6555 8.52808L13.1019 13.0281L8.47126 9.06044L1.91211 12.8473V14.2234ZM8.24023 11.8428C9.22461 11.8428 10.0282 11.0392 10.0282 10.0549C10.0282 9.07049 9.22461 8.27696 8.24023 8.27696C7.25586 8.27696 6.45229 9.07049 6.45229 10.0549C6.45229 11.0392 7.25586 11.8428 8.24023 11.8428ZM12.9813 15.5292C13.9657 15.5292 14.7593 14.7256 14.7593 13.7412C14.7593 12.7569 13.9657 11.9633 12.9813 11.9633C11.9969 11.9633 11.1934 12.7569 11.1934 13.7412C11.1934 14.7256 11.9969 15.5292 12.9813 15.5292ZM20.555 10.9589C21.5393 10.9589 22.3429 10.1553 22.3429 9.17093C22.3429 8.18656 21.5393 7.38299 20.555 7.38299C19.5706 7.38299 18.767 8.18656 18.767 9.17093C18.767 10.1553 19.5706 10.9589 20.555 10.9589Z" fill="#9EFF00"/>
</svg>
