<svg width="24" height="24" viewBox="0 0 24 24" fill="none" xmlns="http://www.w3.org/2000/svg">
<g clip-path="url(#clip0_92_53644)">
<path d="M0 12.0747C0 13.7429 1.17753 14.6587 2.50225 14.6587C3.0583 14.6587 3.47535 14.5033 3.97416 14.1926C4.44026 13.9064 4.77553 14.0781 4.77553 14.4788V17.5044C4.77553 19.1153 5.62597 19.9412 7.25323 19.9412H9.43656C9.82907 19.9412 10.0008 19.6141 9.72279 19.148C9.4039 18.6492 9.2485 18.2322 9.2485 17.6761C9.2485 16.3514 10.1725 15.1739 11.8407 15.1739C13.5089 15.1739 14.4247 16.3514 14.4247 17.6761C14.4247 18.2322 14.2693 18.6492 13.9586 19.148C13.6806 19.6141 13.8441 19.9412 14.2449 19.9412H16.4282C18.0554 19.9412 18.9059 19.1153 18.9059 17.5044V14.4788C18.9059 14.0781 19.2411 13.9064 19.6991 14.1926C20.206 14.5033 20.6231 14.6587 21.171 14.6587C22.5039 14.6587 23.6814 13.7429 23.6814 12.0747C23.6814 10.3983 22.5039 9.48247 21.171 9.48247C20.6231 9.48247 20.206 9.63785 19.6991 9.94858C19.2411 10.2348 18.9059 10.0631 18.9059 9.66237V6.63678C18.9059 5.03403 18.0554 4.19995 16.4282 4.19995H14.2449C13.8441 4.19995 13.6806 4.53522 13.9586 5.00133C14.2693 5.50014 14.4247 5.91718 14.4247 6.47323C14.4247 7.79796 13.5089 8.97548 11.8407 8.97548C10.1725 8.97548 9.2485 7.79796 9.2485 6.47323C9.2485 5.91718 9.4039 5.50014 9.72279 5.00133C10.0008 4.53522 9.82907 4.19995 9.43656 4.19995H7.25323C5.62597 4.19995 4.77553 5.03403 4.77553 6.63678V9.66237C4.77553 10.0631 4.44026 10.2348 3.97416 9.94858C3.47535 9.63785 3.0583 9.48247 2.50225 9.48247C1.17753 9.48247 0 10.3983 0 12.0747Z" fill="#9EFF00"/>
</g>
<defs>
<clipPath id="clip0_92_53644">
<rect width="24" height="24" fill="white"/>
</clipPath>
</defs>
</svg>
