<svg width="24" height="24" viewBox="0 0 24 24" fill="none" xmlns="http://www.w3.org/2000/svg">
<g clip-path="url(#clip0_92_59410)">
<path d="M6.01117 22.572C6.54293 22.572 6.80315 22.2892 6.89366 21.8253L9.13382 10.4209L8.00243 11.3373H16.4427L15.3112 10.4209L17.5514 21.8253C17.6419 22.2892 17.9021 22.572 18.4339 22.572C19.1919 22.572 19.4522 22.0516 19.3276 21.4406L17.2119 10.6698C17.0762 9.95698 16.4765 9.43654 15.7864 9.43654H8.66995C7.9798 9.43654 7.38016 9.95698 7.24439 10.6698L5.12869 21.4406C5.00423 22.0516 5.27577 22.572 6.01117 22.572ZM8.42104 10.353H16.0353L13.2181 1.94672C13.0484 1.47153 12.7317 1.2 12.2451 1.2C11.736 1.2 11.3853 1.47153 11.2269 1.94672L8.42104 10.353Z" fill="#9EFF00"/>
</g>
<defs>
<clipPath id="clip0_92_59410">
<rect width="14.2578" height="21.372" fill="white" transform="translate(5.09961 1.2)"/>
</clipPath>
</defs>
</svg>
