<svg width="24" height="24" viewBox="0 0 24 24" fill="none" xmlns="http://www.w3.org/2000/svg">
<path d="M1.0498 15.8725C1.0498 16.0541 1.14061 16.2688 1.28094 16.4091L4.92138 20.1403C5.07823 20.3055 5.26809 20.388 5.47446 20.388C5.67258 20.388 5.86245 20.3055 6.01929 20.1403L9.668 16.4091C9.80832 16.2688 9.89088 16.0541 9.89088 15.8725C9.89088 15.435 9.59369 15.1461 9.16441 15.1461C8.94977 15.1461 8.78473 15.2121 8.66089 15.3442L7.46391 16.6072L6.12661 18.1427L6.20916 16.2357V8.35226L6.12661 6.44536L7.46391 7.98079L8.66089 9.2438C8.78473 9.37587 8.94977 9.44192 9.16441 9.44192C9.59369 9.44192 9.89088 9.15299 9.89088 8.71548C9.89088 8.53386 9.80832 8.31924 9.668 8.17891L6.01929 4.44766C5.86245 4.28256 5.67258 4.20001 5.47446 4.20001C5.26809 4.20001 5.07823 4.28256 4.92138 4.44766L1.28094 8.17891C1.14061 8.31924 1.0498 8.53386 1.0498 8.71548C1.0498 9.15299 1.34698 9.44192 1.77624 9.44192C1.99087 9.44192 2.16422 9.36762 2.27979 9.2438L3.48502 7.98079L4.81407 6.44536L4.73152 8.35226V16.2357L4.81407 18.1427L3.48502 16.6072L2.27979 15.3442C2.16422 15.2204 1.99087 15.1461 1.77624 15.1461C1.34698 15.1461 1.0498 15.435 1.0498 15.8725ZM11.5006 10.1106C11.5006 10.35 11.6822 10.5398 11.9381 10.5728C15.8262 11.0104 16.3958 11.5552 16.9158 15.5671C16.9571 15.8148 17.147 15.9799 17.3699 15.9799C17.601 15.9799 17.7908 15.8148 17.8321 15.5671C18.3522 11.5552 18.9136 11.0104 22.8016 10.5728C23.0658 10.5398 23.2391 10.35 23.2391 10.1106C23.2391 9.87117 23.0658 9.68131 22.8016 9.64829C18.9218 9.21077 18.3522 8.65769 17.8321 4.65403C17.7908 4.41464 17.6092 4.24954 17.3699 4.24954C17.1387 4.24954 16.9571 4.41464 16.9158 4.65403C16.3628 8.63293 15.8345 9.12822 11.9381 9.64829C11.6822 9.68131 11.5006 9.87117 11.5006 10.1106ZM10.7164 17.3007C10.7164 17.4657 10.8319 17.606 11.0135 17.6473C13.1185 18.0436 13.1598 18.0188 13.3992 20C13.4322 20.1899 13.5643 20.3302 13.7459 20.3302C13.9358 20.3302 14.0679 20.1981 14.1009 20.0083C14.365 17.9363 14.4558 17.9363 16.4701 17.6473C16.66 17.6143 16.7837 17.474 16.7837 17.3007C16.7837 17.1355 16.6682 16.9869 16.4783 16.9539C14.4311 16.5577 14.3733 16.6072 14.1009 14.5848C14.0679 14.4032 13.9275 14.2711 13.7459 14.2711C13.5643 14.2711 13.4322 14.4114 13.3992 14.6012C13.1598 16.5824 13.1103 16.6155 11.0466 16.9539C10.8402 16.9869 10.7164 17.119 10.7164 17.3007Z" fill="#9EFF00"/>
</svg>
