<svg width="24" height="24" viewBox="0 0 24 24" fill="none" xmlns="http://www.w3.org/2000/svg">
<path d="M2.40039 13.0186V14.4402C2.40039 16.3053 3.34202 17.2469 5.24339 17.2469H7.53408V15.7892H5.26149C4.35608 15.7892 3.8581 15.3003 3.8581 14.3587V13.0186H2.40039ZM3.8581 11.7783V7.66768H2.40039V11.7783H3.8581ZM3.8581 6.43631V5.35888C3.8581 4.41725 4.35608 3.92833 5.26149 3.92833H6.57434V2.47061H5.24339C3.34202 2.47061 2.40039 3.41224 2.40039 5.27739V6.43631H3.8581ZM11.9163 2.47061H7.8057V3.92833H11.9163V2.47061ZM13.1477 3.92833H14.3066C15.2029 3.92833 15.71 4.41725 15.71 5.35888V7.34173H17.1677V5.27739C17.1677 3.41224 16.217 2.47061 14.3337 2.47061H13.1477V3.92833ZM21.5589 16.4773V9.46946C21.5589 7.6043 20.6082 6.66267 18.725 6.66267H9.63463C7.73326 6.66267 6.79164 7.59524 6.79164 9.46946V18.6322C6.79164 20.4973 7.73326 21.439 9.63463 21.439H14.1979V19.9813H9.65274C8.75638 19.9813 8.24935 19.4923 8.24935 18.5507V9.55097C8.24935 8.6093 8.75638 8.12038 9.65274 8.12038H18.6978C19.5942 8.12038 20.1012 8.6093 20.1012 9.55097V15.0106L21.5589 16.4773ZM15.0128 19.8002C15.0037 20.1533 15.4202 20.2619 15.6465 20.0447L17.0318 18.6594L18.5801 22.4802C18.6526 22.6523 18.8336 22.7338 18.9966 22.6703L19.902 22.3082C20.056 22.2357 20.1283 22.0456 20.0378 21.8736L18.4172 18.1071L20.3728 18.0346C20.7078 18.0165 20.8799 17.6815 20.6354 17.428L15.6828 12.3396C15.4564 12.1042 15.1033 12.24 15.0943 12.575L15.0128 19.8002Z" fill="#9EFF00"/>
</svg>
