<svg width="24" height="24" viewBox="0 0 24 24" fill="none" xmlns="http://www.w3.org/2000/svg">
<path d="M20.1229 14.1095V6.42539C20.1229 5.37071 19.6709 5.02919 18.8171 4.67763C17.6318 4.19549 13.8049 2.73901 12.6196 2.3975C12.3483 2.32718 12.0571 2.24683 11.7758 2.24683C11.4946 2.24683 11.2033 2.30709 10.9421 2.3975C9.74679 2.80932 5.91978 4.18544 4.73452 4.67763C3.89076 5.03924 3.42871 5.37071 3.42871 6.42539V14.1095C3.42871 17.7759 5.38742 19.1319 11.1028 22.3361C11.364 22.4768 11.6151 22.537 11.7758 22.537C11.9365 22.537 12.1977 22.4768 12.4488 22.3361C18.1542 19.1218 20.1229 17.7759 20.1229 14.1095ZM11.5649 20.6787C11.4443 20.6486 11.3138 20.5783 11.153 20.4778C6.52246 17.6553 5.02581 16.8417 5.02581 13.7379V6.73679C5.02581 6.39527 5.08607 6.25464 5.36733 6.15419C6.92424 5.62182 9.85728 4.5571 11.374 3.95441C11.4544 3.92428 11.5146 3.90419 11.5649 3.89415V20.6787Z" fill="#9EFF00"/>
</svg>
