<svg width="119" height="41" viewBox="0 0 119 41" fill="none" xmlns="http://www.w3.org/2000/svg">
<rect y="0.5" width="40.1878" height="40" rx="5" fill="#9EFF00"/>
<path d="M7.32373 12.9749L20.0937 20.5V34.8662L7.32373 27.5691L7.32373 12.9749Z" fill="#1A1A1A"/>
<path fill-rule="evenodd" clip-rule="evenodd" d="M21.2205 20.4899V32.9246L31.7369 26.9152V14.2927L21.2205 20.4899ZM32.8637 27.5691L20.0937 34.8662V20.5L7.32373 12.9748L20.0937 6.13379L32.8637 12.9748V27.5691ZM31.1462 13.333L20.0937 7.41205L9.62249 13.0216L20.6485 19.5191L31.1462 13.333Z" fill="#1A1A1A"/>
<path d="M51.0712 13.8333C53.0918 13.8333 54.6221 14.9327 55.0084 16.7007L52.9878 17.1167C52.8392 16.1807 52.0221 15.5715 51.0266 15.5715C50.0164 15.5715 49.4072 16.1361 49.4072 16.8047C49.4072 17.3098 49.6301 17.6664 50.4026 17.815L52.5421 18.2458C54.1615 18.5875 55.1569 19.5533 55.1569 21.0984C55.1569 23.0298 53.5672 24.2333 51.2049 24.2333C49.1249 24.2333 47.2975 23.2675 47.0449 21.2767L49.1695 20.8458C49.4369 21.975 50.2689 22.4653 51.3981 22.4653C52.5569 22.4653 53.1661 21.9155 53.1661 21.2024C53.1661 20.6378 52.8986 20.2961 52.0072 20.1178L49.8975 19.7167C48.7089 19.4641 47.2826 18.8104 47.2826 16.8641C47.2826 15.0813 48.7386 13.8333 51.0712 13.8333Z" fill="white"/>
<path d="M64.3925 16.5967V26.5361H62.4314V23.431C61.8074 23.9361 60.9902 24.2333 59.9799 24.2333C58.0931 24.2333 56.3399 22.6435 56.3399 20.311C56.3399 17.9784 58.0931 16.3738 59.9799 16.3738C60.9902 16.3738 61.8074 16.671 62.4314 17.191V16.5967H64.3925ZM60.3216 22.5247C61.3765 22.5247 62.4314 21.6778 62.4314 20.311C62.4314 18.9441 61.3765 18.0824 60.3216 18.0824C59.1331 18.0824 58.2416 18.9441 58.2416 20.311C58.2416 21.6778 59.1331 22.5247 60.3216 22.5247Z" fill="white"/>
<path d="M73.466 16.5967V24.0104H71.5049V23.3418C70.9255 23.9213 70.1529 24.2333 69.1723 24.2333C67.3895 24.2333 66.2009 22.9555 66.2009 21.1133V16.5967H68.162V20.6973C68.162 21.7373 68.7563 22.4355 69.6626 22.4355C70.7769 22.4355 71.5049 21.6927 71.5049 19.8801V16.5967H73.466Z" fill="white"/>
<path d="M83.0075 16.5967V24.0104H81.0463V23.431C80.4223 23.9361 79.6052 24.2333 78.5949 24.2333C76.708 24.2333 74.9549 22.6435 74.9549 20.311C74.9549 17.9784 76.708 16.3738 78.5949 16.3738C79.6052 16.3738 80.4223 16.671 81.0463 17.191V16.5967H83.0075ZM78.9366 22.5247C79.9915 22.5247 81.0463 21.6778 81.0463 20.311C81.0463 18.9441 79.9915 18.0824 78.9366 18.0824C77.748 18.0824 76.8566 18.9441 76.8566 20.311C76.8566 21.6778 77.748 22.5247 78.9366 22.5247Z" fill="white"/>
<path d="M89.7021 16.4927C89.8952 16.4927 90.0438 16.4927 90.2221 16.5521L90.1181 18.439H89.6872C87.8747 18.439 87.0427 19.5533 87.0427 21.6184V24.0104H85.0815V16.5967H87.0427V17.9487C87.637 17.087 88.4987 16.4927 89.7021 16.4927Z" fill="white"/>
<path d="M98.3761 20.1624V20.831H92.7304C92.9235 21.9007 93.6813 22.5544 94.5875 22.5544C95.167 22.5544 95.895 22.4801 96.4298 21.5738L98.183 21.9453C97.5293 23.4904 96.207 24.2333 94.5875 24.2333C92.4927 24.2333 90.7841 22.6435 90.7841 20.311C90.7841 17.9784 92.4927 16.3738 94.6173 16.3738C96.5933 16.3738 98.3018 17.9041 98.3761 20.1624ZM94.6173 18.0824C93.8744 18.0824 93.0275 18.5281 92.7898 19.4493H96.3704C96.1178 18.4984 95.4047 18.0824 94.6173 18.0824Z" fill="white"/>
<path d="M108.439 14.0561V19.5533C108.439 22.3464 106.73 24.2333 104.16 24.2333C101.53 24.2333 99.777 22.3464 99.777 19.5533V14.0561H101.798V19.5533C101.798 21.2173 102.734 22.3018 104.16 22.3018C105.512 22.3018 106.418 21.2173 106.418 19.5533V14.0561H108.439Z" fill="white"/>
<path d="M114.841 16.3738C116.728 16.3738 118.481 17.9784 118.481 20.311C118.481 22.6435 116.728 24.2333 114.841 24.2333C113.831 24.2333 113.014 23.9361 112.39 23.431V26.5361H110.429V16.5967H112.39V17.191C113.014 16.671 113.831 16.3738 114.841 16.3738ZM114.499 22.5247C115.688 22.5247 116.579 21.6778 116.579 20.311C116.579 18.9441 115.688 18.0824 114.499 18.0824C113.445 18.0824 112.39 18.9441 112.39 20.311C112.39 21.6778 113.445 22.5247 114.499 22.5247Z" fill="white"/>
</svg>
