<svg width="26" height="26" viewBox="0 0 26 26" fill="none" xmlns="http://www.w3.org/2000/svg">
<path d="M8.16443 6.78557C7.78367 6.40481 7.16633 6.40481 6.78557 6.78557C6.40481 7.16633 6.40481 7.78367 6.78557 8.16443L11.6211 13L6.78557 17.8356C6.40481 18.2163 6.40481 18.8337 6.78557 19.2144C7.16633 19.5952 7.78367 19.5952 8.16443 19.2144L13 14.3789L17.8356 19.2144C18.2163 19.5952 18.8337 19.5952 19.2144 19.2144C19.5952 18.8337 19.5952 18.2163 19.2144 17.8356L14.3789 13L19.2144 8.16443C19.5952 7.78367 19.5952 7.16633 19.2144 6.78557C18.8337 6.40481 18.2163 6.40481 17.8356 6.78557L13 11.6211L8.16443 6.78557Z" fill="#C5FF66"/>
</svg>
