<svg width="25" height="25" viewBox="0 0 25 25" fill="none" xmlns="http://www.w3.org/2000/svg">
<path fill-rule="evenodd" clip-rule="evenodd" d="M2 5C2 3.34315 3.34315 2 5 2H6.37163C7.232 2 7.98197 2.58556 8.19064 3.42025L9.29644 7.84343C9.47941 8.5753 9.20594 9.34555 8.60242 9.79818L7.3088 10.7684C7.17447 10.8691 7.14527 11.0167 7.183 11.1197C8.31851 14.2195 10.7805 16.6815 13.8803 17.817C13.9833 17.8547 14.1309 17.8255 14.2316 17.6912L15.2018 16.3976C15.6545 15.7941 16.4247 15.5206 17.1566 15.7036L21.5798 16.8094C22.4144 17.018 23 17.768 23 18.6284V20C23 21.6569 21.6569 23 20 23H17.75C9.05151 23 2 15.9485 2 7.25V5Z" fill="#9EFF00"/>
</svg>
