<svg width="26" height="26" viewBox="0 0 26 26" fill="none" xmlns="http://www.w3.org/2000/svg">
<path d="M13.9752 6.1752C13.9752 5.63672 13.5387 5.2002 13.0002 5.2002C12.4617 5.2002 12.0252 5.63672 12.0252 6.1752V12.0252H6.1752C5.63672 12.0252 5.2002 12.4617 5.2002 13.0002C5.2002 13.5387 5.63672 13.9752 6.1752 13.9752L12.0252 13.9752V19.8252C12.0252 20.3637 12.4617 20.8002 13.0002 20.8002C13.5387 20.8002 13.9752 20.3637 13.9752 19.8252V13.9752H19.8252C20.3637 13.9752 20.8002 13.5387 20.8002 13.0002C20.8002 12.4617 20.3637 12.0252 19.8252 12.0252H13.9752V6.1752Z" fill="white"/>
</svg>
