<svg width="101" height="40" viewBox="0 0 101 40" fill="none" xmlns="http://www.w3.org/2000/svg">
<g clip-path="url(#clip0_92_47111)">
<path d="M31.6874 27.0245L32.9109 24.1649C34.2504 25.1569 35.9976 25.682 37.7453 25.682C39.0268 25.682 39.8421 25.1862 39.8421 24.4277C39.8129 22.3266 32.1243 23.9607 32.0659 18.6785C32.0366 15.994 34.425 13.9222 37.8038 13.9222C39.8129 13.9222 41.8228 14.4184 43.2497 15.5566L42.1064 18.4772C40.7936 17.633 39.1721 17.0445 37.6287 17.0445C36.5803 17.0445 35.8811 17.5403 35.8811 18.1827C35.9103 20.2545 43.6578 19.1162 43.7451 24.1649C43.7451 26.9079 41.4147 28.8339 38.0945 28.8339C35.6484 28.8339 33.4058 28.2504 31.687 27.0245H31.6874ZM80.4025 23.1295C80.0937 23.6782 79.6445 24.1348 79.1009 24.4527C78.5574 24.7705 77.9391 24.938 77.3094 24.9381C75.3471 24.9381 73.7565 23.3441 73.7565 21.3781C73.7565 19.412 75.3471 17.818 77.3094 17.818C77.9391 17.8181 78.5574 17.9856 79.1009 18.3034C79.6445 18.6213 80.0937 19.078 80.4025 19.6267L83.8038 17.7387C82.5298 15.4618 80.0997 13.9222 77.3094 13.9222C73.1997 13.9222 69.8682 17.26 69.8682 21.3781C69.8682 25.4957 73.1997 28.8339 77.3094 28.8339C80.0997 28.8339 82.5298 27.2943 83.8038 25.0174L80.4025 23.1295ZM45.9522 28.542H50.2043V7.71564H45.9526L45.9522 28.542ZM85.9512 7.71564V28.542H90.2033V22.3024L95.242 28.542H100.677L94.2696 21.1295L100.211 14.2129H95.0089L90.2033 19.9633V7.71564H85.9512ZM63.3045 14.2137V15.9067C62.6057 14.7392 60.8873 13.9222 59.0816 13.9222C55.3537 13.9222 52.4123 17.2199 52.4123 21.3634C52.4123 25.507 55.3537 28.8339 59.0816 28.8339C60.8873 28.8339 62.6057 28.0169 63.3045 26.8495V28.542H67.5567V14.2137H63.3045ZM63.3045 23.1583C62.693 24.1795 61.4115 24.9377 59.9847 24.9377C58.0219 24.9377 56.4313 23.3441 56.4313 21.3781C56.4313 19.412 58.0219 17.818 59.9847 17.818C61.4115 17.818 62.693 18.6058 63.3045 19.6559V23.1583Z" fill="#E6E6E6"/>
<path d="M9.23188 7.25311C7.8539 7.25311 6.73698 8.37254 6.73698 9.75302C6.73665 10.081 6.80092 10.4058 6.92612 10.7089C7.05132 11.0121 7.235 11.2876 7.46668 11.5197C7.69835 11.7518 7.97348 11.9361 8.27635 12.0619C8.57922 12.1877 8.90391 12.2526 9.23188 12.2529H11.7272V9.75302C11.7277 9.09063 11.4652 8.45514 10.9972 7.98633C10.5293 7.51752 9.89427 7.25378 9.23188 7.25311ZM9.23188 13.9195H2.57839C1.20042 13.9195 0.0834961 15.039 0.0834961 16.4199C0.0834961 17.8004 1.20042 18.9198 2.57839 18.9198H9.23229C10.6099 18.9198 11.7272 17.8004 11.7272 16.4199C11.7272 15.039 10.6099 13.9195 9.23188 13.9195Z" fill="#E6E6E6"/>
<path d="M25.0338 16.4199C25.0338 15.039 23.9165 13.9195 22.5385 13.9195C21.1605 13.9195 20.0436 15.039 20.0436 16.4199V18.9198H22.5385C23.2009 18.9191 23.8359 18.6554 24.3039 18.1866C24.7718 17.7177 25.0344 17.0823 25.0338 16.4199ZM18.3804 16.4199V9.75302C18.3809 9.09063 18.1183 8.45514 17.6504 7.98633C17.1824 7.51752 16.5474 7.25378 15.885 7.25311C14.5071 7.25311 13.3901 8.37254 13.3901 9.75302V16.4194C13.3901 17.8008 14.5071 18.9202 15.885 18.9202C16.5474 18.9195 17.1824 18.6558 17.6504 18.187C18.1183 17.7182 18.3809 17.0827 18.3804 16.4203" fill="#E6E6E6"/>
<path d="M15.885 32.2542C16.5474 32.2535 17.1824 31.9898 17.6504 31.5209C18.1183 31.0521 18.3809 30.4166 18.3804 29.7542C18.3809 29.0919 18.1183 28.4564 17.6504 27.9876C17.1824 27.5187 16.5474 27.255 15.885 27.2543H13.3901V29.7542C13.3901 31.1347 14.5071 32.2542 15.885 32.2542ZM15.885 25.5877H22.5389C23.9165 25.5877 25.0338 24.4683 25.0338 23.0874C25.0344 22.425 24.7718 21.7895 24.3039 21.3207C23.8359 20.8519 23.2009 20.5882 22.5385 20.5875H15.885C14.5071 20.5875 13.3901 21.7069 13.3901 23.0874C13.3898 23.4154 13.4541 23.7402 13.5793 24.0433C13.7045 24.3464 13.8882 24.6219 14.1198 24.8541C14.3515 25.0862 14.6266 25.2704 14.9295 25.3963C15.2324 25.5221 15.5571 25.587 15.885 25.5873" fill="#E6E6E6"/>
<path d="M0.0834974 23.0874C0.0831681 23.4154 0.147439 23.7402 0.272642 24.0433C0.397844 24.3464 0.581525 24.6219 0.813198 24.8541C1.04487 25.0862 1.32 25.2704 1.62287 25.3963C1.92574 25.5221 2.25043 25.587 2.5784 25.5873C3.24079 25.5867 3.87579 25.3229 4.34374 24.8541C4.81169 24.3853 5.07427 23.7498 5.07371 23.0874V20.5875H2.5784C1.20042 20.5875 0.0834974 21.7069 0.0834974 23.0874ZM6.73698 23.0874V29.7538C6.73698 31.1347 7.8539 32.2542 9.23188 32.2542C9.89427 32.2535 10.5293 31.9898 10.9972 31.5209C11.4652 31.0521 11.7277 30.4166 11.7272 29.7542V23.0874C11.7275 22.7594 11.6632 22.4346 11.538 22.1314C11.4128 21.8282 11.2291 21.5527 10.9973 21.3206C10.7656 21.0884 10.4905 20.9042 10.1875 20.7784C9.88461 20.6527 9.55988 20.5878 9.23188 20.5875C7.8539 20.5875 6.73698 21.7069 6.73698 23.0874Z" fill="#E6E6E6"/>
</g>
<defs>
<clipPath id="clip0_92_47111">
<rect width="100.833" height="40" fill="white" transform="translate(0.0834961)"/>
</clipPath>
</defs>
</svg>
