<svg width="117" height="40" viewBox="0 0 117 40" fill="none" xmlns="http://www.w3.org/2000/svg">
<g clip-path="url(#clip0_92_47105)">
<path d="M17.7288 2.56561C8.06389 2.56561 0.228516 10.4008 0.228516 20.0657C0.228516 29.7311 8.06389 37.5656 17.7288 37.5656C27.3948 37.5656 35.2294 29.7311 35.2294 20.0657C35.2294 10.4014 27.3948 2.56645 17.7286 2.56645L17.7288 2.56561ZM25.7544 27.8058C25.4409 28.3199 24.768 28.4829 24.2539 28.1673C20.145 25.6575 14.9724 25.0891 8.88077 26.4809C8.29376 26.6146 7.70863 26.2468 7.57488 25.6596C7.44051 25.0724 7.80684 24.4872 8.39532 24.3535C15.0617 22.8305 20.7799 23.4862 25.3929 26.3053C25.9069 26.6209 26.0699 27.2917 25.7544 27.8058ZM27.8964 23.0407C27.5014 23.6827 26.6613 23.8854 26.0198 23.4904C21.3157 20.599 14.1451 19.7617 8.5811 21.4506C7.85951 21.6686 7.09737 21.2619 6.87836 20.5416C6.66103 19.82 7.0679 19.0593 7.78825 18.8399C14.1439 16.9114 22.045 17.8456 27.4471 21.1651C28.0886 21.5601 28.2914 22.4002 27.8964 23.0409V23.0407ZM28.0803 18.0788C22.44 14.7287 13.1343 14.4206 7.74917 16.055C6.88442 16.3173 5.96994 15.8291 5.70788 14.9644C5.44583 14.0992 5.93358 13.1854 6.79895 12.9225C12.9807 11.0459 23.2571 11.4085 29.7508 15.2634C30.5303 15.7251 30.7853 16.7296 30.3234 17.5064C29.8637 18.2842 28.8564 18.5406 28.0811 18.0788H28.0803ZM47.8411 18.7207C44.8193 18.0002 44.2822 17.4945 44.2822 16.4318C44.2822 15.4279 45.2268 14.7523 46.6332 14.7523C47.9958 14.7523 49.3458 15.2653 50.7626 16.3215C50.8044 16.3535 50.8587 16.3662 50.911 16.3578C50.9653 16.3499 51.0113 16.3209 51.0426 16.2772L52.518 14.1974C52.5786 14.1118 52.5619 13.9937 52.4804 13.9283C50.794 12.5756 48.8965 11.9179 46.6771 11.9179C43.415 11.9179 41.1351 13.8758 41.1351 16.6772C41.1351 19.6812 43.1015 20.7449 46.4995 21.566C49.3896 22.232 49.8786 22.7899 49.8786 23.7872C49.8786 24.8927 48.8923 25.5802 47.3041 25.5802C45.5403 25.5802 44.1004 24.9846 42.4913 23.5928C42.4516 23.5573 42.3973 23.5427 42.3471 23.5448C42.2928 23.5489 42.2447 23.574 42.2113 23.6137L40.5562 25.5823C40.4872 25.6659 40.4956 25.7871 40.575 25.8581C42.4474 27.5299 44.7504 28.4118 47.2372 28.4118C50.7522 28.4118 53.0237 26.4913 53.0237 23.5176C53.03 21.0084 51.5275 19.6187 47.8474 18.7235L47.8411 18.7207ZM60.9774 15.7407C59.454 15.7407 58.2043 16.3409 57.1719 17.5707V16.1865C57.1719 16.0772 57.0842 15.9882 56.9755 15.9882H54.2692C54.1606 15.9882 54.0728 16.0772 54.0728 16.1865V31.5674C54.0728 31.676 54.1606 31.7659 54.2692 31.7659H56.9755C57.0842 31.7659 57.1719 31.676 57.1719 31.5674V26.7128C58.2043 27.8685 59.454 28.4348 60.9774 28.4348C63.809 28.4348 66.6762 26.2552 66.6762 22.0884C66.6804 17.9208 63.8132 15.7405 60.9795 15.7405L60.9774 15.7407ZM63.529 22.0884C63.529 24.2093 62.2229 25.6909 60.3505 25.6909C58.501 25.6909 57.1051 24.1424 57.1051 22.0884C57.1051 20.0342 58.501 18.4861 60.3505 18.4861C62.1915 18.4859 63.529 20.0005 63.529 22.0882V22.0884ZM74.0217 15.7407C70.3751 15.7407 67.5184 18.5485 67.5184 22.1337C67.5184 25.6805 70.3563 28.4578 73.9778 28.4578C77.637 28.4578 80.5021 25.6596 80.5021 22.0884C80.5021 18.5293 77.6558 15.7412 74.0217 15.7412V15.7407ZM74.0217 25.7118C72.0824 25.7118 70.6196 24.1529 70.6196 22.0874C70.6196 20.0124 72.0323 18.5068 73.9778 18.5068C75.9297 18.5068 77.4009 20.0651 77.4009 22.1327C77.4009 24.2072 75.9798 25.7118 74.0217 25.7118ZM88.2886 15.9882H85.3106V12.9442C85.3106 12.8351 85.2229 12.7461 85.1142 12.7461H82.4079C82.2993 12.7461 82.2094 12.8351 82.2094 12.9442V15.9882H80.9096C80.8009 15.9882 80.7131 16.0772 80.7131 16.1865V18.5118C80.7131 18.6209 80.8009 18.7101 80.9096 18.7101H82.2094V24.7276C82.2094 27.158 83.4194 28.3909 85.808 28.3909C86.7776 28.3909 87.5822 28.1903 88.3408 27.7598C88.4035 27.7264 88.4411 27.6595 88.4411 27.5884V25.3733C88.4411 25.3064 88.4056 25.2416 88.3471 25.2061C88.2886 25.1685 88.2154 25.1664 88.1548 25.1978C87.6344 25.459 87.1308 25.5802 86.5666 25.5802C85.6993 25.5802 85.3106 25.1852 85.3106 24.3033V18.7111H88.2886C88.3972 18.7111 88.485 18.6221 88.485 18.5128V16.1877C88.4892 16.0784 88.4014 15.9894 88.2906 15.9894L88.2886 15.9882ZM98.6621 16.0001V15.6262C98.6621 14.5264 99.0843 14.0359 100.029 14.0359C100.593 14.0359 101.047 14.1479 101.554 14.3172C101.617 14.3368 101.682 14.327 101.732 14.2896C101.784 14.2522 101.814 14.1922 101.814 14.1287V11.8488C101.814 11.7616 101.759 11.6845 101.674 11.6588C101.139 11.4994 100.453 11.3357 99.4249 11.3357C96.9276 11.3357 95.6048 12.743 95.6048 15.4039V15.9765H94.305C94.1963 15.9765 94.1065 16.0655 94.1065 16.1746V18.5118C94.1065 18.6209 94.1963 18.7101 94.305 18.7101H95.6048V27.9897C95.6048 28.1004 95.6947 28.1882 95.8033 28.1882H98.5075C98.6183 28.1882 98.706 28.1004 98.706 27.9897V18.7107H101.233L105.103 27.9897C104.664 28.9635 104.231 29.1579 103.642 29.1579C103.166 29.1579 102.662 29.0158 102.15 28.7336C102.102 28.7086 102.043 28.7044 101.993 28.719C101.941 28.7378 101.897 28.7754 101.876 28.8256L100.959 30.838C100.915 30.9342 100.953 31.0449 101.044 31.0951C102.002 31.6133 102.865 31.8349 103.933 31.8349C105.93 31.8349 107.036 30.9028 108.008 28.3993L112.701 16.2709C112.726 16.2099 112.718 16.1409 112.68 16.0868C112.645 16.0331 112.584 16.0007 112.519 16.0007H109.702C109.617 16.0007 109.541 16.0544 109.514 16.1336L106.628 24.3744L103.469 16.1282C103.439 16.0515 103.366 16.0007 103.285 16.0007H98.6621V16.0001ZM92.6478 15.9882H89.9416C89.8329 15.9882 89.743 16.0772 89.743 16.1865V27.9897C89.743 28.1004 89.8329 28.1882 89.9416 28.1882H92.6478C92.7565 28.1882 92.8463 28.1004 92.8463 27.9897V16.1873C92.8463 16.078 92.7586 15.989 92.6478 15.989V15.9882ZM91.3103 10.6135C90.2383 10.6135 89.3689 11.4812 89.3689 12.553C89.3689 13.6255 90.2383 14.4942 91.3103 14.4942C92.3824 14.4942 93.2496 13.6255 93.2496 12.553C93.2496 11.4814 92.3803 10.6135 91.3103 10.6135ZM115.012 19.7834C113.943 19.7834 113.109 18.9235 113.109 17.8792C113.109 16.8349 113.953 15.9652 115.023 15.9652C116.093 15.9652 116.927 16.8249 116.927 17.8683C116.927 18.9126 116.082 19.7834 115.012 19.7834ZM115.023 16.1545C114.047 16.1545 113.309 16.9298 113.309 17.8792C113.309 18.8282 114.043 19.593 115.012 19.593C115.988 19.593 116.726 18.8183 116.726 17.8683C116.726 16.9194 115.993 16.1545 115.023 16.1545ZM115.445 18.0641L115.984 18.8181H115.529L115.044 18.1264H114.628V18.8181H114.248V16.8195H115.138C115.604 16.8195 115.909 17.0571 115.909 17.4571C115.911 17.7847 115.721 17.9849 115.447 18.0641H115.445ZM115.123 17.1624H114.628V17.7946H115.123C115.37 17.7946 115.518 17.6736 115.518 17.4782C115.518 17.2725 115.37 17.1624 115.123 17.1624Z" fill="#E6E6E6"/>
</g>
<defs>
<clipPath id="clip0_92_47105">
<rect width="116.667" height="40" fill="white" transform="translate(0.166504)"/>
</clipPath>
</defs>
</svg>
