<svg width="81" height="40" viewBox="0 0 81 40" fill="none" xmlns="http://www.w3.org/2000/svg">
<g clip-path="url(#clip0_92_47102)">
<path d="M0.500977 29.4959L8.71301 16.7177H1.4738C1.41245 16.3496 1.38616 15.9464 1.38616 15.4995C1.38616 15.07 1.41245 14.6756 1.4738 14.3163H13.1915L13.3405 14.7107L5.06711 27.5152H12.8234C12.8848 27.9183 12.911 28.339 12.911 28.7597C12.911 29.1628 12.8848 29.5484 12.8234 29.9165H0.649967L0.500977 29.4959Z" fill="#E6E6E6"/>
<path d="M24.1994 19.6363C24.1994 18.4356 23.8926 17.6118 23.2879 17.1385C22.6832 16.674 21.798 16.4374 20.6411 16.4374C19.9312 16.4374 19.2651 16.49 18.6516 16.6039C18.0294 16.7179 17.4334 16.8581 16.8375 17.0421C16.4518 16.3761 16.259 15.5698 16.259 14.6407C16.9514 14.4216 17.7051 14.2464 18.5377 14.1237C19.3703 14.001 20.1678 13.9396 20.9391 13.9396C22.9636 13.9396 24.5061 14.4041 25.5666 15.3244C26.6183 16.2446 27.1529 17.7257 27.1529 19.7503V29.5136C26.443 29.6713 25.5841 29.8466 24.5675 30.0131C23.5508 30.1884 22.5166 30.2673 21.4649 30.2673C20.4746 30.2673 19.5719 30.1796 18.7743 29.9956C17.9768 29.8115 17.2932 29.5223 16.7323 29.1104C16.1714 28.7073 15.7419 28.1902 15.4352 27.5591C15.1284 26.9281 14.9794 26.1656 14.9794 25.2805C14.9794 24.4128 15.1547 23.6416 15.5141 22.9842C15.8646 22.3269 16.3467 21.7748 16.9602 21.3453C17.5649 20.9071 18.266 20.5829 19.0636 20.3725C19.8523 20.1622 20.6849 20.0482 21.5613 20.0482C22.2099 20.0482 22.7445 20.0658 23.1564 20.0921C23.5683 20.1184 23.9189 20.1622 24.2081 20.1972V19.6363H24.1994ZM24.1994 22.5899C23.8926 22.546 23.507 22.511 23.0425 22.4672C22.578 22.4233 22.1836 22.4058 21.8593 22.4058C20.5973 22.4058 19.642 22.6424 18.9847 23.1069C18.3274 23.5714 17.9943 24.2813 17.9943 25.2366C17.9943 25.8414 18.1083 26.3234 18.3274 26.6652C18.5465 27.007 18.8269 27.2699 19.16 27.454C19.493 27.638 19.8611 27.752 20.273 27.787C20.6762 27.8308 21.0618 27.8484 21.4299 27.8484C21.8944 27.8484 22.3764 27.8221 22.876 27.7695C23.3755 27.7169 23.8137 27.6468 24.1994 27.5416V22.5899Z" fill="#E6E6E6"/>
<path d="M30.4394 14.317C30.641 14.2731 30.8513 14.2469 31.0616 14.2293C31.272 14.2118 31.4911 14.203 31.719 14.203C31.9205 14.203 32.1309 14.2118 32.3587 14.2293C32.5778 14.2469 32.7969 14.2819 32.9985 14.317C33.016 14.3608 33.0423 14.4835 33.0774 14.6938C33.1037 14.9042 33.1387 15.132 33.165 15.3774C33.1913 15.6228 33.2264 15.8507 33.2527 16.0786C33.279 16.3064 33.2965 16.4467 33.2965 16.508C33.4981 16.1837 33.7435 15.8682 34.0239 15.5615C34.3044 15.2547 34.6462 14.983 35.0406 14.7376C35.435 14.4923 35.8819 14.2994 36.3815 14.1592C36.881 14.019 37.4332 13.9489 38.0379 13.9489C38.9494 13.9489 39.7995 14.0979 40.5795 14.4046C41.3595 14.7114 42.0256 15.1759 42.5865 15.8156C43.1474 16.4554 43.5769 17.2705 43.8924 18.2521C44.2079 19.2337 44.3656 20.3993 44.3656 21.7402C44.3656 24.4221 43.6382 26.5167 42.1921 28.0241C40.7373 29.5316 38.6865 30.2941 36.0309 30.2941C35.5839 30.2941 35.1282 30.2678 34.6637 30.2064C34.1992 30.1451 33.7873 30.0662 33.4455 29.961V37.1126C33.2001 37.1564 32.9459 37.1827 32.6655 37.2002C32.3938 37.2178 32.1396 37.2265 31.9205 37.2265C31.7014 37.2265 31.4473 37.2178 31.1756 37.2002C30.9039 37.1827 30.6497 37.1476 30.4306 37.1126V14.317H30.4394ZM33.4543 27.3668C33.8399 27.5071 34.2343 27.6122 34.6374 27.6736C35.0406 27.7349 35.5664 27.7612 36.2237 27.7612C36.9512 27.7612 37.626 27.6473 38.2307 27.4106C38.8355 27.174 39.3613 26.8147 39.7995 26.3327C40.2377 25.8419 40.5795 25.2284 40.8337 24.4922C41.0878 23.756 41.2105 22.8708 41.2105 21.8629C41.2105 20.2416 40.9126 18.9532 40.3166 17.9979C39.7206 17.0426 38.739 16.5694 37.3806 16.5694C36.8723 16.5694 36.3903 16.657 35.917 16.8411C35.4525 17.0251 35.0318 17.2968 34.6725 17.6649C34.3044 18.033 34.0152 18.4887 33.7873 19.0496C33.5594 19.6105 33.4543 20.2678 33.4543 21.0391V27.3668Z" fill="#E6E6E6"/>
<path d="M48.1167 16.6826H46.136C46.0922 16.5161 46.0659 16.3321 46.0484 16.1217C46.0308 15.9114 46.0221 15.701 46.0221 15.4995C46.0221 15.2979 46.0308 15.0876 46.0484 14.8772C46.0659 14.6669 46.1009 14.4741 46.136 14.3163H51.0702V29.9253C50.8511 29.9691 50.597 29.9954 50.3253 30.0129C50.0536 30.0305 49.7994 30.0392 49.5803 30.0392C49.3787 30.0392 49.1421 30.0305 48.8616 30.0129C48.59 29.9954 48.3358 29.9604 48.1167 29.9253V16.6826Z" fill="#E6E6E6"/>
<path d="M57.5469 22.8618C57.5908 24.562 58.029 25.8153 58.8703 26.6041C59.7117 27.3928 60.9562 27.7872 62.5951 27.7872C64.0324 27.7872 65.4084 27.5331 66.7055 27.0248C66.872 27.3315 67.0035 27.6996 67.0999 28.1378C67.2051 28.576 67.2576 29.0055 67.2839 29.4349C66.6179 29.7154 65.8817 29.9345 65.0754 30.0747C64.2778 30.2149 63.3839 30.285 62.4111 30.285C60.9913 30.285 59.773 30.0835 58.7564 29.6891C57.7397 29.2947 56.9072 28.7338 56.2498 28.0151C55.5925 27.2964 55.1105 26.4463 54.8037 25.456C54.497 24.4744 54.348 23.3964 54.348 22.2132C54.348 21.0563 54.497 19.9784 54.7862 18.9705C55.0754 17.9626 55.5312 17.0949 56.1359 16.35C56.7406 15.6138 57.5119 15.0178 58.4321 14.5884C59.3524 14.1502 60.4479 13.9311 61.7012 13.9311C62.7791 13.9311 63.7169 14.1151 64.532 14.4832C65.347 14.8513 66.0219 15.3509 66.574 15.9907C67.1174 16.6304 67.5381 17.3929 67.8185 18.2693C68.099 19.1545 68.248 20.1098 68.248 21.144C68.248 21.4244 68.2392 21.7312 68.2129 22.0379C68.1954 22.3534 68.1691 22.6251 68.1516 22.8442H57.5469V22.8618ZM65.2769 20.6094C65.2769 20.0397 65.1981 19.4963 65.0491 18.9792C64.9001 18.4622 64.6722 18.0152 64.383 17.6296C64.085 17.2439 63.7169 16.9372 63.2612 16.7006C62.8054 16.4639 62.2621 16.35 61.631 16.35C60.3953 16.35 59.4488 16.7268 58.7827 17.4718C58.1254 18.2255 57.7222 19.2685 57.582 20.6094H65.2769Z" fill="#E6E6E6"/>
<path d="M71.5784 14.3163C71.7975 14.2725 72.0166 14.2462 72.2182 14.2287C72.4198 14.2111 72.6301 14.2024 72.858 14.2024C73.0771 14.2024 73.305 14.2111 73.5241 14.2287C73.7432 14.2462 73.9535 14.2813 74.1288 14.3163C74.1901 14.6231 74.2515 15.0174 74.3129 15.517C74.3742 16.0166 74.4005 16.4372 74.4005 16.779C74.8299 16.0867 75.3908 15.4907 76.092 14.9824C76.7931 14.4741 77.6871 14.2199 78.7826 14.2199C78.9491 14.2199 79.1156 14.2287 79.2821 14.2374C79.4574 14.2462 79.5977 14.2637 79.7204 14.2813C79.7642 14.4653 79.7905 14.6581 79.808 14.8597C79.8255 15.0613 79.8343 15.2716 79.8343 15.4995C79.8343 15.7449 79.8167 15.999 79.7905 16.262C79.7642 16.5249 79.7203 16.779 79.6853 17.0244C79.5188 16.9806 79.3522 16.9631 79.1857 16.9631C79.0104 16.9631 78.879 16.9631 78.7738 16.9631C78.2304 16.9631 77.7046 17.042 77.205 17.191C76.7055 17.3399 76.2585 17.6116 75.8641 17.9973C75.4697 18.3829 75.1542 18.9087 74.9176 19.5836C74.6809 20.2497 74.567 21.1173 74.567 22.169V29.9253C74.3479 29.9691 74.0937 29.9954 73.8221 30.0129C73.5504 30.0305 73.2962 30.0392 73.0771 30.0392C72.858 30.0392 72.6038 30.0305 72.3322 30.0129C72.0605 29.9954 71.7975 29.9604 71.5521 29.9253V14.3163H71.5784Z" fill="#E6E6E6"/>
<path d="M53.936 5.13179H50.9912L53.0771 3.04592C52.9106 2.81805 52.7265 2.59895 52.5337 2.39737C52.3321 2.19579 52.1218 2.01175 51.8852 1.85399L49.7993 3.93986V0.995101C49.5276 0.95128 49.2472 0.924988 48.9579 0.924988H48.9492C48.66 0.924988 48.3795 0.95128 48.1078 0.995101V3.93986L46.0219 1.85399C45.7941 2.02051 45.575 2.20456 45.3734 2.39737C45.1718 2.59895 44.9965 2.80929 44.83 3.04592L46.9247 5.13179H43.9799C43.9799 5.13179 43.9098 5.68394 43.9098 5.97315C43.9098 6.26237 43.9361 6.54282 43.9799 6.81451H46.9247L44.8388 8.90039C45.1631 9.35612 45.5662 9.75928 46.0307 10.0923L48.1166 8.00644V10.9512C48.3883 10.995 48.6687 11.0213 48.9579 11.0213H48.9667C49.2559 11.0213 49.5364 10.995 49.8081 10.9512V8.00644L51.8939 10.0923C52.1218 9.9258 52.3409 9.74175 52.5425 9.54894C52.7441 9.34736 52.9281 9.13702 53.0859 8.90039L51 6.81451H53.9448C53.9886 6.54282 54.0149 6.26237 54.0149 5.97315V5.96439C54.0061 5.68394 53.9886 5.40348 53.936 5.13179ZM50.22 5.98192C50.22 6.35878 50.1499 6.71811 50.0272 7.05115C49.6941 7.17385 49.3348 7.24396 48.9579 7.24396C48.5811 7.24396 48.2217 7.17385 47.8887 7.05115C47.766 6.71811 47.6959 6.35878 47.6959 5.98192V5.97315C47.6959 5.59629 47.766 5.23696 47.8887 4.90392C48.2217 4.78123 48.5811 4.71111 48.9579 4.71111C49.3348 4.71111 49.6941 4.78123 50.0272 4.90392C50.1499 5.23696 50.22 5.59629 50.22 5.98192Z" fill="#E6E6E6"/>
</g>
<defs>
<clipPath id="clip0_92_47102">
<rect width="80" height="40" fill="white" transform="translate(0.5)"/>
</clipPath>
</defs>
</svg>
