<svg width="83" height="40" viewBox="0 0 83 40" fill="none" xmlns="http://www.w3.org/2000/svg">
<g clip-path="url(#clip0_92_47108)">
<path fill-rule="evenodd" clip-rule="evenodd" d="M67.0892 17.1665C67.4011 17.7045 67.5031 18.3166 67.5368 19.0048L67.581 19.922V26.336L67.6263 27.2542C67.7167 28.7538 68.8226 29.8625 70.3337 29.9569L71.2471 30.0021V19.922L71.2924 19.0048C71.3299 18.3243 71.431 17.7006 71.7476 17.1588C72.0703 16.603 72.5335 16.1418 73.0907 15.8217C73.648 15.5015 74.2796 15.3336 74.9223 15.3347C75.565 15.3359 76.196 15.5061 76.7521 15.8283C77.3082 16.1505 77.7697 16.6133 78.0904 17.1703C78.4022 17.7083 78.4994 18.332 78.5369 19.0048L78.5822 19.9192V26.336L78.6274 27.2542C78.7217 28.7615 79.819 29.8702 81.3349 29.9569L82.2483 30.0021V19.0048C82.2483 17.0602 81.476 15.1951 80.1012 13.8198C78.7264 12.4445 76.8617 11.6715 74.9171 11.6707C73.8762 11.6696 72.8472 11.8906 71.8986 12.319C70.9501 12.7474 70.1038 13.3733 69.4165 14.1549C68.7288 13.3736 67.8826 12.7479 66.9341 12.3193C65.9856 11.8908 64.9567 11.6694 63.9159 11.6697C62.3933 11.6697 60.9803 12.1317 59.81 12.9296C59.0958 12.1327 57.4981 11.6697 56.5808 11.6697V30.0021L57.4981 29.9569C59.0323 29.8558 60.1411 28.7769 60.2007 27.2542L60.2498 26.336V19.922L60.2951 19.0048C60.3336 18.3128 60.4298 17.7045 60.7426 17.1626C61.0655 16.6072 61.5285 16.1461 62.0854 15.8256C62.6422 15.505 63.2734 15.3361 63.9159 15.3358C64.5589 15.336 65.1906 15.5052 65.7475 15.8265C66.3045 16.1478 66.7672 16.6099 67.0892 17.1665ZM4.33259 29.9578L5.24984 30.0021H18.9989L18.9536 29.0877C18.8295 27.5805 17.7621 26.4794 16.25 26.3812L15.3328 26.336H7.08432L18.0816 15.3349L18.0364 14.4215C17.9652 12.8988 16.8525 11.7987 15.3328 11.715L14.4155 11.6736L0.666504 11.6697L0.71174 12.587C0.832051 14.0798 1.91484 15.204 3.41439 15.2906L4.33259 15.3358H12.581L1.58375 26.337L1.62898 27.2542C1.71946 28.7653 2.80995 29.8597 4.33259 29.9569V29.9578ZM52.9821 14.3531C53.8335 15.2043 54.5088 16.2148 54.9695 17.3269C55.4303 18.4391 55.6674 19.6311 55.6674 20.835C55.6674 22.0388 55.4303 23.2308 54.9695 24.343C54.5088 25.4551 53.8335 26.4656 52.9821 27.3168C51.2622 29.0353 48.9303 30.0007 46.4989 30.0007C44.0675 30.0007 41.7355 29.0353 40.0156 27.3168C36.4361 23.7373 36.4361 17.9326 40.0156 14.3531C40.8661 13.5023 41.8759 12.8273 42.9874 12.3667C44.0988 11.9061 45.29 11.669 46.4931 11.6688C47.6981 11.6679 48.8915 11.9047 50.0049 12.3654C51.1184 12.8262 52.1301 13.502 52.9821 14.3541V14.3531ZM50.3882 16.9489C51.4193 17.9807 51.9984 19.3797 51.9984 20.8383C51.9984 22.297 51.4193 23.6959 50.3882 24.7277C49.3564 25.7587 47.9575 26.3379 46.4989 26.3379C45.0402 26.3379 43.6413 25.7587 42.6095 24.7277C41.5785 23.6959 40.9993 22.297 40.9993 20.8383C40.9993 19.3797 41.5785 17.9807 42.6095 16.9489C43.6413 15.9179 45.0402 15.3388 46.4989 15.3388C47.9575 15.3388 49.3564 15.9179 50.3882 16.9489ZM27.255 11.6688C28.4582 11.6691 29.6495 11.9064 30.7609 12.3671C31.8723 12.8279 32.8821 13.5031 33.7325 14.3541C37.3129 17.9326 37.3129 23.7383 33.7325 27.3168C32.0126 29.0353 29.6806 30.0007 27.2493 30.0007C24.8179 30.0007 22.4859 29.0353 20.766 27.3168C17.1865 23.7373 17.1865 17.9326 20.766 14.3531C21.6165 13.5023 22.6263 12.8273 23.7377 12.3667C24.8492 11.9061 26.0404 11.669 27.2435 11.6688H27.255ZM31.1386 16.947C32.1699 17.9788 32.7493 19.378 32.7493 20.8369C32.7493 22.2957 32.1699 23.6949 31.1386 24.7267C30.1068 25.7578 28.7079 26.3369 27.2493 26.3369C25.7906 26.3369 24.3917 25.7578 23.3599 24.7267C22.3289 23.6949 21.7497 22.296 21.7497 20.8374C21.7497 19.3787 22.3289 17.9798 23.3599 16.948C24.3917 15.917 25.7906 15.3378 27.2493 15.3378C28.7079 15.3378 30.1068 15.917 31.1386 16.948V16.947Z" fill="#E6E6E6"/>
</g>
<defs>
<clipPath id="clip0_92_47108">
<rect width="81.6666" height="40" fill="white" transform="translate(0.666504)"/>
</clipPath>
</defs>
</svg>
