<svg width="48" height="48" viewBox="0 0 48 48" fill="none" xmlns="http://www.w3.org/2000/svg">
<path fill-rule="evenodd" clip-rule="evenodd" d="M32.8218 5.53724L32.8238 7.03648C38.333 7.46826 41.9724 11.2224 41.9782 16.9795L42 33.831C42.0078 40.108 38.0644 43.97 31.7436 43.98L16.3038 44C10.0224 44.008 6.02963 40.054 6.02173 33.759L6.00001 17.1054C5.99211 11.3103 9.50305 7.56622 15.0123 7.06048L15.0104 5.56122C15.0084 4.68166 15.66 4.02 16.5289 4.02C17.3977 4.018 18.0494 4.67766 18.0513 5.55722L18.0533 6.95652L29.7828 6.94054L29.7808 5.54124C29.7788 4.66168 30.4304 4.002 31.2994 4C32.1484 3.998 32.8198 4.65768 32.8218 5.53724ZM9.04295 17.7231L38.9392 17.6832V16.9835C38.8544 12.6857 36.698 10.4308 32.8276 10.095L32.8296 11.6342C32.8296 12.4938 32.1602 13.1754 31.3112 13.1754C30.4424 13.1774 29.7886 12.4977 29.7886 11.6382L29.7868 10.019L18.0573 10.035L18.0592 11.6522C18.0592 12.5137 17.4096 13.1934 16.5407 13.1934C15.6719 13.1954 15.0183 12.5177 15.0183 11.6562L15.0163 10.1169C11.1657 10.5027 9.03505 12.7656 9.04097 17.1014L9.04295 17.7231ZM30.4798 26.8086V26.8306C30.4996 27.7502 31.25 28.4478 32.1602 28.4278C33.0488 28.4058 33.7578 27.6442 33.738 26.7246C33.6966 25.845 32.9836 25.1274 32.097 25.1294C31.1888 25.1494 30.4778 25.889 30.4798 26.8086ZM32.1108 35.784C31.2026 35.764 30.47 35.0064 30.468 34.087C30.4482 33.1674 31.1768 32.4058 32.0852 32.3838H32.105C33.033 32.3838 33.7854 33.1414 33.7854 34.081C33.7874 35.0204 33.037 35.782 32.1108 35.784ZM22.3442 26.8406C22.3838 27.7602 23.136 28.4778 24.0444 28.4378C24.933 28.3958 25.642 27.6362 25.6024 26.7166C25.5806 25.817 24.85 25.1174 23.9614 25.1194C23.0532 25.1594 22.3422 25.921 22.3442 26.8406ZM24.0524 35.6942C23.144 35.7342 22.3936 35.0164 22.3522 34.097C22.3522 33.1774 23.061 32.4178 23.9694 32.3758C24.858 32.3738 25.5906 33.0734 25.6104 33.971C25.6518 34.8926 24.941 35.6522 24.0524 35.6942ZM14.2087 26.9106C14.2482 27.83 15.0005 28.5498 15.9088 28.5078C16.7974 28.4678 17.5063 27.7062 17.4649 26.7866C17.4451 25.887 16.7145 25.1874 15.8239 25.1894C14.9156 25.2294 14.2067 25.991 14.2087 26.9106ZM15.9167 35.7042C15.0084 35.7462 14.258 35.0264 14.2166 34.107C14.2146 33.1874 14.9255 32.4258 15.8338 32.3858C16.7224 32.3838 17.455 33.0834 17.4747 33.983C17.5162 34.9026 16.8073 35.6642 15.9167 35.7042Z" fill="white"/>
</svg>
