<svg width="32" height="32" viewBox="0 0 32 32" fill="none" xmlns="http://www.w3.org/2000/svg">
<path d="M16 32C24.8366 32 32 24.8366 32 16C32 7.16344 24.8366 0 16 0C7.16344 0 0 7.16344 0 16C0 24.8366 7.16344 32 16 32Z" fill="#5D50C6"/>
<path d="M25.8006 11.4985C25.115 11.8026 24.3774 12.0082 23.6039 12.1C24.3937 11.6269 24.9998 10.8782 25.2858 9.98459C24.5468 10.423 23.728 10.741 22.8572 10.9124C22.1596 10.1694 21.1656 9.70508 20.065 9.70508C17.9532 9.70508 16.2405 11.4178 16.2405 13.5295C16.2405 13.8293 16.2745 14.1211 16.3401 14.4011C13.1616 14.2417 10.3434 12.7192 8.45699 10.4047C8.12785 10.9694 7.93904 11.6269 7.93904 12.3276C7.93904 13.6542 8.61471 14.8253 9.64035 15.5109C9.01373 15.4912 8.42362 15.3193 7.90824 15.032C7.90795 15.0483 7.90795 15.0646 7.90795 15.0805C7.90795 16.9336 9.22679 18.4792 10.976 18.8303C10.6554 18.9181 10.3169 18.9646 9.96863 18.9646C9.72163 18.9646 9.48234 18.9409 9.24903 18.8964C9.73561 20.4155 11.1477 21.5213 12.8216 21.5523C11.5125 22.5783 9.86367 23.1895 8.07138 23.1895C7.76335 23.1895 7.45817 23.1715 7.15955 23.1359C8.85116 24.2214 10.8619 24.8543 13.0216 24.8543C20.0561 24.8543 23.9031 19.0268 23.9031 13.9725C23.9031 13.8068 23.8994 13.6416 23.892 13.4779C24.6398 12.9388 25.2881 12.2655 25.8006 11.4985Z" fill="#F1F2F2"/>
</svg>
