<svg width="32" height="32" viewBox="0 0 32 32" fill="none" xmlns="http://www.w3.org/2000/svg">
<path d="M16 32C24.8366 32 32 24.8366 32 16C32 7.16344 24.8366 0 16 0C7.16344 0 0 7.16344 0 16C0 24.8366 7.16344 32 16 32Z" fill="#5D50C6"/>
<path d="M20.8 8.19922H11.2C9.53328 8.19922 8.19995 9.53255 8.19995 11.1992V20.7992C8.19995 22.4659 9.53328 23.7992 11.2 23.7992H20.8C22.4666 23.7992 23.8 22.4659 23.8 20.7992V11.1992C23.8 9.53255 22.4666 8.19922 20.8 8.19922ZM21.6666 9.99922H22V12.6659H19.3333V9.99922H21.6666ZM13.8 14.3992C14.2666 13.7326 15.1333 13.2659 16 13.2659C16.8666 13.2659 17.7333 13.7326 18.2 14.3992C18.5333 14.8659 18.7333 15.3992 18.7333 15.9992C18.7333 17.5325 17.4666 18.7326 16 18.7326C14.5333 18.7326 13.2666 17.5326 13.2666 15.9992C13.2666 15.3992 13.4666 14.8659 13.8 14.3992ZM22.2666 20.7992C22.2666 21.5992 21.6 22.2659 20.8 22.2659H11.2C10.4 22.2659 9.73329 21.5992 9.73329 20.7992V14.3992H12.0666C11.8666 14.8659 11.7333 15.4659 11.7333 15.9992C11.7333 18.3326 13.6666 20.2659 16 20.2659C18.3333 20.2659 20.2666 18.3326 20.2666 15.9992C20.2666 15.4659 20.1333 14.8659 19.9333 14.3992H22.2666L22.2666 20.7992Z" fill="white"/>
</svg>
