<svg width="24" height="25" viewBox="0 0 24 25" fill="none" xmlns="http://www.w3.org/2000/svg">
<path fill-rule="evenodd" clip-rule="evenodd" d="M16.9395 3.37891C18.2805 3.37891 19.5705 3.90891 20.5195 4.85991C21.4695 5.80891 22.0005 7.08891 22.0005 8.42891V16.3289C22.0005 19.1189 19.7305 21.3789 16.9395 21.3789H7.06049C4.26949 21.3789 2.00049 19.1189 2.00049 16.3289V8.42891C2.00049 5.63891 4.25949 3.37891 7.06049 3.37891H16.9395ZM18.5305 9.91891L18.6105 9.83891C18.8495 9.54891 18.8495 9.12891 18.5995 8.83891C18.4605 8.68991 18.2695 8.59891 18.0705 8.57891C17.8605 8.56791 17.6605 8.63891 17.5095 8.77891L13.0005 12.3789C12.4205 12.8599 11.5895 12.8599 11.0005 12.3789L6.50049 8.77891C6.18949 8.54891 5.75949 8.57891 5.50049 8.84891C5.23049 9.11891 5.20049 9.54891 5.42949 9.84891L5.56049 9.97891L10.1105 13.5289C10.6705 13.9689 11.3495 14.2089 12.0605 14.2089C12.7695 14.2089 13.4605 13.9689 14.0195 13.5289L18.5305 9.91891Z" fill="#191825" fill-opacity="0.75"/>
</svg>
