<svg width="32" height="32" viewBox="0 0 32 32" fill="none" xmlns="http://www.w3.org/2000/svg">
<path d="M23.8912 19.092C23.5459 19.4267 23.3872 19.9107 23.4659 20.3853L24.6512 26.9453C24.7512 27.5013 24.5165 28.064 24.0512 28.3853C23.5952 28.7187 22.9885 28.7587 22.4912 28.492L16.5859 25.412C16.3805 25.3027 16.1525 25.244 15.9192 25.2373H15.5579C15.4325 25.256 15.3099 25.296 15.1979 25.3573L9.29118 28.452C8.99918 28.5987 8.66852 28.6507 8.34452 28.5987C7.55518 28.4493 7.02852 27.6973 7.15785 26.904L8.34452 20.344C8.42318 19.8653 8.26452 19.3787 7.91918 19.0387L3.10452 14.372C2.70185 13.9813 2.56185 13.3947 2.74585 12.8654C2.92452 12.3374 3.38052 11.952 3.93118 11.8654L10.5578 10.904C11.0619 10.852 11.5045 10.5454 11.7312 10.092L14.6512 4.10536C14.7205 3.97203 14.8099 3.84936 14.9179 3.74536L15.0379 3.65203C15.1005 3.5827 15.1725 3.52536 15.2525 3.4787L15.3979 3.42536L15.6245 3.33203H16.1859C16.6872 3.38403 17.1285 3.68403 17.3592 4.13203L20.3179 10.092C20.5312 10.528 20.9459 10.8307 21.4245 10.904L28.0512 11.8654C28.6112 11.9454 29.0792 12.332 29.2645 12.8654C29.4392 13.4 29.2885 13.9867 28.8779 14.372L23.8912 19.092Z" fill="#FACD49"/>
</svg>
