<svg width="48" height="48" viewBox="0 0 48 48" fill="none" xmlns="http://www.w3.org/2000/svg">
<path fill-rule="evenodd" clip-rule="evenodd" d="M43.5744 21.078C43.3036 21.3412 42.9362 21.4914 42.5494 21.4914C41.118 21.4914 39.9574 22.619 39.9574 23.9906C39.9574 25.3716 41.1044 26.4934 42.5222 26.5086C43.321 26.516 44 27.0572 44 27.8332V32.653C44 36.7098 40.615 40 36.4372 40H30.1316C29.4796 40 28.9516 39.487 28.9516 38.8538V34.795C28.9516 34.0058 28.3134 33.3858 27.501 33.3858C26.708 33.3858 26.0502 34.0058 26.0502 34.795V38.8538C26.0502 39.487 25.5222 40 24.8724 40H11.5629C7.40426 40 4 36.7116 4 32.653V27.8332C4 27.0572 4.67892 26.516 5.47776 26.5086C6.89748 26.4934 8.04256 25.3716 8.04256 23.9906C8.04256 22.6564 6.9207 21.6418 5.45068 21.6418C5.06382 21.6418 4.69632 21.4914 4.42554 21.2284C4.15474 20.9654 4 20.6084 4 20.2326V15.3658C4 11.3146 7.412 8 11.5822 8H24.8724C25.5222 8 26.0502 8.51298 26.0502 9.14622V13.9565C26.0502 14.727 26.708 15.3658 27.501 15.3658C28.3134 15.3658 28.9516 14.727 28.9516 13.9565V9.14622C28.9516 8.51298 29.4796 8 30.1316 8H36.4372C40.615 8 44 11.2883 44 15.347V20.0822C44 20.458 43.8452 20.815 43.5744 21.078ZM27.501 29.7404C28.3134 29.7404 28.9516 29.1016 28.9516 28.3312V20.815C28.9516 20.0446 28.3134 19.4058 27.501 19.4058C26.708 19.4058 26.0502 20.0446 26.0502 20.815V28.3312C26.0502 29.1016 26.708 29.7404 27.501 29.7404Z" fill="white"/>
</svg>
